<?xml version="1.0" encoding="UTF-8" standalone="no"?>
<!-- Created with Inkscape (http://www.inkscape.org/) -->

<svg
   xmlns:dc="http://purl.org/dc/elements/1.1/"
   xmlns:cc="http://creativecommons.org/ns#"
   xmlns:rdf="http://www.w3.org/1999/02/22-rdf-syntax-ns#"
   xmlns:svg="http://www.w3.org/2000/svg"
   xmlns="http://www.w3.org/2000/svg"
   xmlns:sodipodi="http://sodipodi.sourceforge.net/DTD/sodipodi-0.dtd"
   xmlns:inkscape="http://www.inkscape.org/namespaces/inkscape"
   width="744.09448819"
   height="1052.3622047"
   id="svg2"
   version="1.1"
   inkscape:version="0.47 r22583"
   sodipodi:docname="printer.svg">
  <defs
     id="defs4">
    <inkscape:perspective
       sodipodi:type="inkscape:persp3d"
       inkscape:vp_x="0 : 526.18109 : 1"
       inkscape:vp_y="0 : 1000 : 0"
       inkscape:vp_z="744.09448 : 526.18109 : 1"
       inkscape:persp3d-origin="372.04724 : 350.78739 : 1"
       id="perspective10" />
  </defs>
  <sodipodi:namedview
     id="base"
     pagecolor="#ffffff"
     bordercolor="#666666"
     borderopacity="1.0"
     inkscape:pageopacity="0.0"
     inkscape:pageshadow="2"
     inkscape:zoom="1.4956828"
     inkscape:cx="450.08262"
     inkscape:cy="801.84841"
     inkscape:document-units="px"
     inkscape:current-layer="layer1"
     showgrid="true"
     inkscape:window-width="1672"
     inkscape:window-height="1023"
     inkscape:window-x="0"
     inkscape:window-y="0"
     inkscape:window-maximized="0"
     inkscape:snap-global="true"
     showborder="false">
    <inkscape:grid
       type="axonomgrid"
       id="grid2816"
       units="mm"
       empspacing="5"
       visible="true"
       enabled="true"
       snapvisiblegridlinesonly="true"
       spacingy="0.5mm" />
  </sodipodi:namedview>
  <metadata
     id="metadata7">
    <rdf:RDF>
      <cc:Work
         rdf:about="">
        <dc:format>image/svg+xml</dc:format>
        <dc:type
           rdf:resource="http://purl.org/dc/dcmitype/StillImage" />
      </cc:Work>
    </rdf:RDF>
  </metadata>
  <g
     inkscape:label="Layer 1"
     inkscape:groupmode="layer"
     id="layer1">
    <g
       id="g3759"
       transform="translate(53.700394,37.35999)"
       style="fill:#ffffff;fill-opacity:1">
      <path
         id="path3761"
         d="m 213.625,59.75 c -0.0448,0.216985 -0.0625,0.434141 -0.0625,0.65625 0,3.056862 3.98599,5.53125 8.90625,5.53125 4.92026,0 8.90625,-2.474388 8.90625,-5.53125 0,-0.212472 -0.0213,-0.417521 -0.0625,-0.625 -0.47022,2.439013 -3.50702,4.3775 -7.375,4.78125 -0.48014,0.05782 -0.96112,0.09375 -1.46875,0.09375 -0.50749,0 -0.98959,-0.0359 -1.46875,-0.09375 -3.89616,-0.399999 -6.92769,-2.351886 -7.375,-4.8125 z"
         style="fill:#ffffff;fill-opacity:1;stroke:#000000;stroke-width:1;stroke-linecap:round;stroke-linejoin:round;stroke-miterlimit:4;stroke-opacity:1;stroke-dasharray:none;stroke-dashoffset:0" />
      <path
         sodipodi:nodetypes="csscccccsccccc"
         id="path3763"
         d="m 214.8125,56.3125 c -0.79114,0.826821 -1.25,1.780809 -1.25,2.8125 0,3.056862 3.98599,5.53125 8.90625,5.53125 -4.05992,0 -7.35452,-1.939479 -7.625,-4.40625 l -0.0312,0 0,-0.3125 0,-3.625 z m 7.65625,8.34375 c 4.92026,0 8.90625,-2.474388 8.90625,-5.53125 0,-1.021072 -0.44262,-1.960116 -1.21875,-2.78125 l 0,3.59375 0,0.3125 -0.0312,0 c -0.26881,2.467773 -3.59517,4.40625 -7.65625,4.40625 z"
         style="fill:#ffffff;fill-opacity:1;stroke:#000000;stroke-width:1;stroke-linecap:round;stroke-linejoin:round;stroke-miterlimit:4;stroke-opacity:1;stroke-dasharray:none;stroke-dashoffset:0" />
    </g>
    <path
       style="fill:#ffffff;fill-opacity:1;stroke:#000000;stroke-width:1px;stroke-linecap:butt;stroke-linejoin:miter;stroke-opacity:1"
       d="m 283.85664,94.236396 c -1.54871,1.633919 -4.41465,2.71875 -7.6875,2.71875 -3.25558,0 -6.10196,-1.06786 -7.65625,-2.6875 l 0,2.793398 0,0.3125 0.0312,0 c 0.27048,2.466771 3.56508,4.406246 7.625,4.406246 4.06108,0 7.38744,-1.938473 7.65625,-4.406246 l 0.0312,0 0,-0.3125 0,-2.824648 z"
       id="path3765"
       sodipodi:nodetypes="csccccscccc" />
    <path
       style="fill:#ffffff;stroke:#000000;stroke-width:1px;stroke-linecap:butt;stroke-linejoin:miter;stroke-opacity:1;fill-opacity:1"
       d="m 277.70775,101.87006 36.82313,-5.314964 -0.0451,-5.239419 -4e-5,0 -36.77799,5.239423"
       id="path3820"
       sodipodi:nodetypes="ccccc" />
    <path
       style="fill:none;stroke:#000000;stroke-width:1px;stroke-linecap:butt;stroke-linejoin:miter;stroke-opacity:1"
       d="m 337.5,-19.887819 115.11761,66.836616 0,5.314963 -115.07228,-66.437008 -0.0453,-5.714571 -3e-5,0 z"
       id="path3773"
       sodipodi:nodetypes="cccccc" />
    <path
       style="fill:none;stroke:#000000;stroke-width:1px;stroke-linecap:butt;stroke-linejoin:miter;stroke-opacity:1"
       d="m 237.81603,38.090529 99.7293,-57.57874 0,5.314958 -99.7293,57.57874 0,-5.314958 z"
       id="path3771"
       sodipodi:nodetypes="ccccc" />
    <path
       style="fill:none;stroke:#000000;stroke-width:2;stroke-linecap:butt;stroke-linejoin:miter;stroke-opacity:1;stroke-miterlimit:4;stroke-dasharray:none"
       d="m 184.11564,290.55117 0,-230.314972 153.42969,-88.582677 153.4297,88.582677 0,230.314972 -153.4297,88.58267 -153.42969,-88.58267 z"
       id="path2818"
       sodipodi:nodetypes="ccccccc" />
    <path
       style="fill:none;stroke:#000000;stroke-width:2;stroke-linecap:round;stroke-linejoin:miter;stroke-opacity:1;stroke-miterlimit:4;stroke-dasharray:none"
       d="m 237.81603,259.54723 -30.68594,-17.71654 0,-141.73228 107.40079,62.00787 0,141.73228 -38.35742,-22.14567"
       id="path2824"
       sodipodi:nodetypes="cccccc" />
    <path
       style="fill:none;stroke:#000000;stroke-width:1px;stroke-linecap:butt;stroke-linejoin:miter;stroke-opacity:1"
       d="m 337.54533,148.81888 0,230.31495"
       id="path2826"
       sodipodi:nodetypes="cc" />
    <path
       style="fill:none;stroke:#000000;stroke-width:2;stroke-linecap:butt;stroke-linejoin:miter;stroke-opacity:1;stroke-miterlimit:4;stroke-dasharray:none"
       d="M 253.15901,46.948801 360.55979,108.95667 444.94612,60.236198 337.54533,-1.7716777 253.15901,46.948801 z"
       id="path2830"
       sodipodi:nodetypes="ccccc" />
    <path
       style="fill:none;stroke:#000000;stroke-width:1px;stroke-linecap:butt;stroke-linejoin:miter;stroke-opacity:1"
       d="M 183.2831,59.697119 337.54533,148.81888 490.97503,60.236198"
       id="path3604" />
    <path
       style="fill:none;stroke:#000000;stroke-width:1;stroke-linecap:butt;stroke-linejoin:miter;stroke-miterlimit:4;stroke-opacity:1;stroke-dasharray:none"
       d="m 246.21875,236.65353 c 1.08045,-0.0799 2.46814,0.33304 4.21875,1.34375 l 0.90625,0.5 c 2.33414,1.34762 3.85653,2.55822 5.0625,4.34375 1.16707,-0.33765 2.72837,0.15239 5.0625,1.5 l 0.875,0.53125 c 4.66827,2.69523 6.9375,6.80557 6.9375,10.8125 l 0,14.0625 c 0,0.42792 -0.29083,0.62206 -0.71875,0.375 l -2,-1.15625 c -0.42793,-0.24707 -0.71875,-0.75958 -0.71875,-1.1875 l 0,-14.09375 c 0,-3.34559 -1.43818,-4.62211 -3.5,-5.8125 l -0.875,-0.53125 c -2.48974,-1.43745 -3.34375,-1.49868 -3.34375,0.71875 l 0,15.25 c 0,0.42792 -0.29082,0.62207 -0.71875,0.375 l -2.03125,-1.15625 c -0.42792,-0.24706 -0.6875,-0.75958 -0.6875,-1.1875 l 0,-15.25 c 0,-2.21743 -0.85401,-3.1563 -3.34375,-4.59375 l -0.90625,-0.5 c -2.02292,-1.16793 -3.5,-1.56434 -3.5,1.78125 l 0,14.09375 c 0,0.42792 -0.25957,0.62207 -0.6875,0.375 l -2.03125,-1.1875 c -0.42792,-0.24706 -0.6875,-0.75958 -0.6875,-1.1875 l 0,-14.0625 c 0,-2.50433 0.88675,-4.02315 2.6875,-4.15625 z"
       id="path3606"
       sodipodi:nodetypes="ccccccccccccccccccccccccccccc" />
    <g
       transform="matrix(1,0.57735027,0,1,0,0)"
       style="font-size:38.90232468px;font-style:normal;font-variant:normal;font-weight:normal;font-stretch:normal;fill:#000000;fill-opacity:1;stroke:none;font-family:NeoTech;-inkscape-font-specification:NeoTech"
       id="text3629" />
    <text
       xml:space="preserve"
       style="font-size:19.12945175px;font-style:normal;font-variant:normal;font-weight:normal;font-stretch:normal;fill:none;stroke:#000000;stroke-width:0.99999994;stroke-opacity:1;font-family:NeoTech;-inkscape-font-specification:NeoTech"
       x="214.80157"
       y="146.81888"
       id="text3637"
       transform="matrix(1,0.57735025,0,1,0,0)"><tspan
         sodipodi:role="line"
         id="tspan3639"
         x="214.80157"
         y="146.81888"
         style="stroke-width:0.99999994">MakerBot</tspan><tspan
         sodipodi:role="line"
         x="214.80157"
         y="170.7307"
         id="tspan3641"
         style="stroke-width:0.99999994">Industries</tspan></text>
    <g
       id="g3675"
       transform="translate(15.342969,-11.360482)"
       style="fill:#ffffff;fill-opacity:1">
      <path
         id="path3665"
         d="m 213.625,59.75 c -0.0448,0.216985 -0.0625,0.434141 -0.0625,0.65625 0,3.056862 3.98599,5.53125 8.90625,5.53125 4.92026,0 8.90625,-2.474388 8.90625,-5.53125 0,-0.212472 -0.0213,-0.417521 -0.0625,-0.625 -0.47022,2.439013 -3.50702,4.3775 -7.375,4.78125 -0.48014,0.05782 -0.96112,0.09375 -1.46875,0.09375 -0.50749,0 -0.98959,-0.0359 -1.46875,-0.09375 -3.89616,-0.399999 -6.92769,-2.351886 -7.375,-4.8125 z"
         style="fill:#ffffff;fill-opacity:1;stroke:#000000;stroke-width:1;stroke-linecap:round;stroke-linejoin:round;stroke-miterlimit:4;stroke-opacity:1;stroke-dasharray:none;stroke-dashoffset:0" />
      <path
         sodipodi:nodetypes="csscccccsccccc"
         id="path3667"
         d="m 214.8125,56.3125 c -0.79114,0.826821 -1.25,1.780809 -1.25,2.8125 0,3.056862 3.98599,5.53125 8.90625,5.53125 -4.05992,0 -7.35452,-1.939479 -7.625,-4.40625 l -0.0312,0 0,-0.3125 0,-3.625 z m 7.65625,8.34375 c 4.92026,0 8.90625,-2.474388 8.90625,-5.53125 0,-1.021072 -0.44262,-1.960116 -1.21875,-2.78125 l 0,3.59375 0,0.3125 -0.0312,0 c -0.26881,2.467773 -3.59517,4.40625 -7.65625,4.40625 z"
         style="fill:#ffffff;fill-opacity:1;stroke:#000000;stroke-width:1;stroke-linecap:round;stroke-linejoin:round;stroke-miterlimit:4;stroke-opacity:1;stroke-dasharray:none;stroke-dashoffset:0" />
    </g>
    <path
       style="fill:#ffffff;fill-opacity:1;stroke:#000000;stroke-width:1px;stroke-linecap:butt;stroke-linejoin:miter;stroke-opacity:1"
       d="m 245.49922,45.515924 c -1.54871,1.633919 -4.41465,2.71875 -7.6875,2.71875 -3.25558,0 -6.10196,-1.06786 -7.65625,-2.6875 l 0,2.793398 0,0.3125 0.0312,0 c 0.27048,2.466771 3.56508,4.40625 7.625,4.40625 4.06108,0 7.38744,-1.938477 7.65625,-4.40625 l 0.0312,0 0,-0.3125 0,-2.824648 z"
       id="path3645"
       sodipodi:nodetypes="csccccscccc" />
    <g
       id="g3687"
       transform="translate(115.07227,-65.937816)">
      <g
         id="g3689"
         transform="translate(0,-3.0014059)"
         style="fill:#ffffff;fill-opacity:1">
        <path
           id="path3691"
           d="m 213.625,59.75 c -0.0448,0.216985 -0.0625,0.434141 -0.0625,0.65625 0,3.056862 3.98599,5.53125 8.90625,5.53125 4.92026,0 8.90625,-2.474388 8.90625,-5.53125 0,-0.212472 -0.0213,-0.417521 -0.0625,-0.625 -0.47022,2.439013 -3.50702,4.3775 -7.375,4.78125 -0.48014,0.05782 -0.96112,0.09375 -1.46875,0.09375 -0.50749,0 -0.98959,-0.0359 -1.46875,-0.09375 -3.89616,-0.399999 -6.92769,-2.351886 -7.375,-4.8125 z"
           style="fill:#ffffff;fill-opacity:1;stroke:#000000;stroke-width:1;stroke-linecap:round;stroke-linejoin:round;stroke-miterlimit:4;stroke-opacity:1;stroke-dasharray:none;stroke-dashoffset:0" />
        <path
           sodipodi:nodetypes="csscccccsccccc"
           id="path3693"
           d="m 214.8125,56.3125 c -0.79114,0.826821 -1.25,1.780809 -1.25,2.8125 0,3.056862 3.98599,5.53125 8.90625,5.53125 -4.05992,0 -7.35452,-1.939479 -7.625,-4.40625 l -0.0312,0 0,-0.3125 0,-3.625 z m 7.65625,8.34375 c 4.92026,0 8.90625,-2.474388 8.90625,-5.53125 0,-1.021072 -0.44262,-1.960116 -1.21875,-2.78125 l 0,3.59375 0,0.3125 -0.0312,0 c -0.26881,2.467773 -3.59517,4.40625 -7.65625,4.40625 z"
           style="fill:#ffffff;fill-opacity:1;stroke:#000000;stroke-width:1;stroke-linecap:round;stroke-linejoin:round;stroke-miterlimit:4;stroke-opacity:1;stroke-dasharray:none;stroke-dashoffset:0" />
      </g>
      <path
         style="fill:#ffffff;fill-opacity:1;stroke:#000000;stroke-width:1px;stroke-linecap:butt;stroke-linejoin:miter;stroke-opacity:1"
         d="m 230.15625,53.875 c -1.54871,1.633919 -4.41465,2.71875 -7.6875,2.71875 -3.25558,0 -6.10196,-1.06786 -7.65625,-2.6875 l 0,2.793398 0,0.3125 0.0312,0 c 0.27048,2.466771 3.56508,4.40625 7.625,4.40625 4.06108,0 7.38744,-1.938477 7.65625,-4.40625 l 0.0312,0 0,-0.3125 0,-2.824648 z"
         id="path3695"
         sodipodi:nodetypes="csccccscccc" />
      <path
         style="fill:#ffffff;fill-opacity:1;stroke:#000000;stroke-width:1;stroke-linecap:round;stroke-linejoin:round;stroke-miterlimit:4;stroke-opacity:1;stroke-dasharray:none;stroke-dashoffset:0"
         d="m 213.625,50.40625 c -0.0448,0.216985 -0.0625,0.434141 -0.0625,0.65625 0,3.056862 3.98599,5.53125 8.90625,5.53125 4.92026,0 8.90625,-2.474388 8.90625,-5.53125 0,-0.212472 -0.0213,-0.417521 -0.0625,-0.625 -0.52887,2.74322 -4.28585,4.875 -8.84375,4.875 -4.57847,0 -8.34181,-2.145095 -8.84375,-4.90625 z"
         id="path3697" />
      <path
         transform="matrix(0.90921721,0,0,0.91399302,20.690049,1.0884832)"
         d="m 231.72893,53.265671 c 0,3.344513 -4.38691,6.055777 -9.79845,6.055777 -5.41154,0 -9.79845,-2.711264 -9.79845,-6.055777 0,-3.344514 4.38691,-6.055778 9.79845,-6.055778 5.41154,0 9.79845,2.711264 9.79845,6.055778 z"
         sodipodi:ry="6.0557775"
         sodipodi:rx="9.7984533"
         sodipodi:cy="53.265671"
         sodipodi:cx="221.93048"
         id="path3699"
         style="fill:#ffffff;fill-opacity:1;stroke:#000000;stroke-width:1.09696996;stroke-linecap:round;stroke-linejoin:round;stroke-miterlimit:4;stroke-opacity:1;stroke-dasharray:none;stroke-dashoffset:0"
         sodipodi:type="arc" />
    </g>
    <g
       id="g3787">
      <g
         id="g3703"
         transform="translate(130.41524,55.076526)"
         style="fill:#ffffff;fill-opacity:1">
        <path
           id="path3705"
           d="m 213.625,59.75 c -0.0448,0.216985 -0.0625,0.434141 -0.0625,0.65625 0,3.056862 3.98599,5.53125 8.90625,5.53125 4.92026,0 8.90625,-2.474388 8.90625,-5.53125 0,-0.212472 -0.0213,-0.417521 -0.0625,-0.625 -0.47022,2.439013 -3.50702,4.3775 -7.375,4.78125 -0.48014,0.05782 -0.96112,0.09375 -1.46875,0.09375 -0.50749,0 -0.98959,-0.0359 -1.46875,-0.09375 -3.89616,-0.399999 -6.92769,-2.351886 -7.375,-4.8125 z"
           style="fill:#ffffff;fill-opacity:1;stroke:#000000;stroke-width:1;stroke-linecap:round;stroke-linejoin:round;stroke-miterlimit:4;stroke-opacity:1;stroke-dasharray:none;stroke-dashoffset:0" />
        <path
           sodipodi:nodetypes="csscccccsccccc"
           id="path3707"
           d="m 214.8125,56.3125 c -0.79114,0.826821 -1.25,1.780809 -1.25,2.8125 0,3.056862 3.98599,5.53125 8.90625,5.53125 -4.05992,0 -7.35452,-1.939479 -7.625,-4.40625 l -0.0312,0 0,-0.3125 0,-3.625 z m 7.65625,8.34375 c 4.92026,0 8.90625,-2.474388 8.90625,-5.53125 0,-1.021072 -0.44262,-1.960116 -1.21875,-2.78125 l 0,3.59375 0,0.3125 -0.0312,0 c -0.26881,2.467773 -3.59517,4.40625 -7.65625,4.40625 z"
           style="fill:#ffffff;fill-opacity:1;stroke:#000000;stroke-width:1;stroke-linecap:round;stroke-linejoin:round;stroke-miterlimit:4;stroke-opacity:1;stroke-dasharray:none;stroke-dashoffset:0" />
      </g>
      <path
         style="fill:#ffffff;fill-opacity:1;stroke:#000000;stroke-width:1px;stroke-linecap:butt;stroke-linejoin:miter;stroke-opacity:1"
         d="m 360.57149,111.95293 c -1.54871,1.63392 -4.41465,2.71875 -7.6875,2.71875 -3.25558,0 -6.10196,-1.06786 -7.65625,-2.6875 l 0,2.7934 0,0.3125 0.0312,0 c 0.27048,2.46677 3.56508,4.40625 7.625,4.40625 4.06108,0 7.38744,-1.93848 7.65625,-4.40625 l 0.0312,0 0,-0.3125 0,-2.82465 z"
         id="path3709"
         sodipodi:nodetypes="csccccscccc" />
    </g>
    <g
       id="g3717"
       transform="translate(230.14455,-2.5022149)"
       style="fill:#ffffff;fill-opacity:1">
      <path
         id="path3719"
         d="m 213.625,59.75 c -0.0448,0.216985 -0.0625,0.434141 -0.0625,0.65625 0,3.056862 3.98599,5.53125 8.90625,5.53125 4.92026,0 8.90625,-2.474388 8.90625,-5.53125 0,-0.212472 -0.0213,-0.417521 -0.0625,-0.625 -0.47022,2.439013 -3.50702,4.3775 -7.375,4.78125 -0.48014,0.05782 -0.96112,0.09375 -1.46875,0.09375 -0.50749,0 -0.98959,-0.0359 -1.46875,-0.09375 -3.89616,-0.399999 -6.92769,-2.351886 -7.375,-4.8125 z"
         style="fill:#ffffff;fill-opacity:1;stroke:#000000;stroke-width:1;stroke-linecap:round;stroke-linejoin:round;stroke-miterlimit:4;stroke-opacity:1;stroke-dasharray:none;stroke-dashoffset:0" />
      <path
         sodipodi:nodetypes="csscccccsccccc"
         id="path3721"
         d="m 214.8125,56.3125 c -0.79114,0.826821 -1.25,1.780809 -1.25,2.8125 0,3.056862 3.98599,5.53125 8.90625,5.53125 -4.05992,0 -7.35452,-1.939479 -7.625,-4.40625 l -0.0312,0 0,-0.3125 0,-3.625 z m 7.65625,8.34375 c 4.92026,0 8.90625,-2.474388 8.90625,-5.53125 0,-1.021072 -0.44262,-1.960116 -1.21875,-2.78125 l 0,3.59375 0,0.3125 -0.0312,0 c -0.26881,2.467773 -3.59517,4.40625 -7.65625,4.40625 z"
         style="fill:#ffffff;fill-opacity:1;stroke:#000000;stroke-width:1;stroke-linecap:round;stroke-linejoin:round;stroke-miterlimit:4;stroke-opacity:1;stroke-dasharray:none;stroke-dashoffset:0" />
    </g>
    <path
       style="fill:#ffffff;fill-opacity:1;stroke:#000000;stroke-width:1px;stroke-linecap:butt;stroke-linejoin:miter;stroke-opacity:1"
       d="m 460.3008,54.374191 c -1.54871,1.633919 -4.41465,2.71875 -7.6875,2.71875 -3.25558,0 -6.10196,-1.06786 -7.65625,-2.6875 l 0,2.793398 0,0.3125 0.0312,0 c 0.27048,2.466771 3.56508,4.40625 7.625,4.40625 4.06108,0 7.38744,-1.938477 7.65625,-4.40625 l 0.0312,0 0,-0.3125 0,-2.824648 z"
       id="path3723"
       sodipodi:nodetypes="csccccscccc" />
    <path
       sodipodi:nodetypes="cccc"
       id="path3775"
       d="m 359.02549,111.61415 101.26359,-58.236219 0,5.314958 -101.26359,58.236221"
       style="fill:#ffffff;stroke:#000000;stroke-width:1px;stroke-linecap:butt;stroke-linejoin:miter;stroke-opacity:1;fill-opacity:1" />
    <g
       id="g3799">
      <path
         id="path3725"
         d="m 443.76955,50.905441 c -0.0448,0.216985 -0.0625,0.434141 -0.0625,0.65625 0,3.056862 3.98599,5.53125 8.90625,5.53125 4.92026,0 8.90625,-2.474388 8.90625,-5.53125 0,-0.212472 -0.0213,-0.417521 -0.0625,-0.625 -0.52887,2.74322 -4.28585,4.875 -8.84375,4.875 -4.57847,0 -8.34181,-2.145095 -8.84375,-4.90625 z"
         style="fill:#ffffff;fill-opacity:1;stroke:#000000;stroke-width:1;stroke-linecap:round;stroke-linejoin:round;stroke-miterlimit:4;stroke-opacity:1;stroke-dasharray:none;stroke-dashoffset:0" />
      <path
         sodipodi:type="arc"
         style="fill:#ffffff;fill-opacity:1;stroke:#000000;stroke-width:1.09696996;stroke-linecap:round;stroke-linejoin:round;stroke-miterlimit:4;stroke-opacity:1;stroke-dasharray:none;stroke-dashoffset:0"
         id="path3727"
         sodipodi:cx="221.93048"
         sodipodi:cy="53.265671"
         sodipodi:rx="9.7984533"
         sodipodi:ry="6.0557775"
         d="m 231.72893,53.265671 a 9.7984533,6.0557775 0 1 1 -19.5969,0 9.7984533,6.0557775 0 1 1 19.5969,0 z"
         transform="matrix(0.90921721,0,0,0.91399302,250.8346,1.5876742)" />
    </g>
    <path
       style="fill:#ffffff;stroke:#000000;stroke-width:1px;stroke-linecap:butt;stroke-linejoin:miter;stroke-opacity:1;fill-opacity:1"
       d="m 346.75,111.625 -32.21875,-18.6875 0,5.40625 32.21875,18.59375 m -116.65625,-73.03125 0.0625,5.6875 30.6875,17.71875 0,-5.5625 -30.75,-17.84375 z"
       id="path3815"
       sodipodi:nodetypes="ccccccccc" />
    <g
       style="fill:#ffffff;fill-opacity:1"
       transform="translate(37.169874,12.608362)"
       id="g3731">
      <path
         style="fill:#ffffff;fill-opacity:1;stroke:#000000;stroke-width:1;stroke-linecap:round;stroke-linejoin:round;stroke-miterlimit:4;stroke-opacity:1;stroke-dasharray:none;stroke-dashoffset:0"
         d="m 213.625,59.75 c -0.0448,0.216985 -0.0625,0.434141 -0.0625,0.65625 0,3.056862 3.98599,5.53125 8.90625,5.53125 4.92026,0 8.90625,-2.474388 8.90625,-5.53125 0,-0.212472 -0.0213,-0.417521 -0.0625,-0.625 -0.47022,2.439013 -3.50702,4.3775 -7.375,4.78125 -0.48014,0.05782 -0.96112,0.09375 -1.46875,0.09375 -0.50749,0 -0.98959,-0.0359 -1.46875,-0.09375 -3.89616,-0.399999 -6.92769,-2.351886 -7.375,-4.8125 z"
         id="path3733" />
      <path
         style="fill:#ffffff;fill-opacity:1;stroke:#000000;stroke-width:1;stroke-linecap:round;stroke-linejoin:round;stroke-miterlimit:4;stroke-opacity:1;stroke-dasharray:none;stroke-dashoffset:0"
         d="m 214.8125,56.3125 c -0.79114,0.826821 -1.25,1.780809 -1.25,2.8125 0,3.056862 3.98599,5.53125 8.90625,5.53125 -4.05992,0 -7.35452,-1.939479 -7.625,-4.40625 l -0.0312,0 0,-0.3125 0,-3.625 z m 7.65625,8.34375 c 4.92026,0 8.90625,-2.474388 8.90625,-5.53125 0,-1.021072 -0.44262,-1.960116 -1.21875,-2.78125 l 0,3.59375 0,0.3125 -0.0312,0 c -0.26881,2.467773 -3.59517,4.40625 -7.65625,4.40625 z"
         id="path3735"
         sodipodi:nodetypes="csscccccsccccc" />
    </g>
    <path
       sodipodi:nodetypes="csccccscccc"
       id="path3737"
       d="m 267.32612,69.484768 c -1.54871,1.633919 -4.41465,2.71875 -7.6875,2.71875 -3.25558,0 -6.10196,-1.06786 -7.65625,-2.6875 l 0,2.793398 0,0.3125 0.0312,0 c 0.27048,2.466771 3.56508,4.40625 7.625,4.40625 4.06108,0 7.38744,-1.938477 7.65625,-4.40625 l 0.0312,0 0,-0.3125 0,-2.824648 z"
       style="fill:#ffffff;fill-opacity:1;stroke:#000000;stroke-width:1px;stroke-linecap:butt;stroke-linejoin:miter;stroke-opacity:1" />
    <g
       id="g3743"
       transform="translate(92.057818,44.79053)">
      <g
         style="fill:#ffffff;fill-opacity:1"
         transform="translate(0,-3.0014059)"
         id="g3745">
        <path
           style="fill:#ffffff;fill-opacity:1;stroke:#000000;stroke-width:1;stroke-linecap:round;stroke-linejoin:round;stroke-miterlimit:4;stroke-opacity:1;stroke-dasharray:none;stroke-dashoffset:0"
           d="m 213.625,59.75 c -0.0448,0.216985 -0.0625,0.434141 -0.0625,0.65625 0,3.056862 3.98599,5.53125 8.90625,5.53125 4.92026,0 8.90625,-2.474388 8.90625,-5.53125 0,-0.212472 -0.0213,-0.417521 -0.0625,-0.625 -0.47022,2.439013 -3.50702,4.3775 -7.375,4.78125 -0.48014,0.05782 -0.96112,0.09375 -1.46875,0.09375 -0.50749,0 -0.98959,-0.0359 -1.46875,-0.09375 -3.89616,-0.399999 -6.92769,-2.351886 -7.375,-4.8125 z"
           id="path3747" />
        <path
           style="fill:#ffffff;fill-opacity:1;stroke:#000000;stroke-width:1;stroke-linecap:round;stroke-linejoin:round;stroke-miterlimit:4;stroke-opacity:1;stroke-dasharray:none;stroke-dashoffset:0"
           d="m 214.8125,56.3125 c -0.79114,0.826821 -1.25,1.780809 -1.25,2.8125 0,3.056862 3.98599,5.53125 8.90625,5.53125 -4.05992,0 -7.35452,-1.939479 -7.625,-4.40625 l -0.0312,0 0,-0.3125 0,-3.625 z m 7.65625,8.34375 c 4.92026,0 8.90625,-2.474388 8.90625,-5.53125 0,-1.021072 -0.44262,-1.960116 -1.21875,-2.78125 l 0,3.59375 0,0.3125 -0.0312,0 c -0.26881,2.467773 -3.59517,4.40625 -7.65625,4.40625 z"
           id="path3749"
           sodipodi:nodetypes="csscccccsccccc" />
      </g>
      <path
         sodipodi:nodetypes="csccccscccc"
         id="path3751"
         d="m 230.15625,53.875 c -1.54871,1.633919 -4.41465,2.71875 -7.6875,2.71875 -3.25558,0 -6.10196,-1.06786 -7.65625,-2.6875 l 0,2.793398 0,0.3125 0.0312,0 c 0.27048,2.466771 3.56508,4.40625 7.625,4.40625 4.06108,0 7.38744,-1.938477 7.65625,-4.40625 l 0.0312,0 0,-0.3125 0,-2.824648 z"
         style="fill:#ffffff;fill-opacity:1;stroke:#000000;stroke-width:1px;stroke-linecap:butt;stroke-linejoin:miter;stroke-opacity:1" />
      <path
         id="path3753"
         d="m 213.625,50.40625 c -0.0448,0.216985 -0.0625,0.434141 -0.0625,0.65625 0,3.056862 3.98599,5.53125 8.90625,5.53125 4.92026,0 8.90625,-2.474388 8.90625,-5.53125 0,-0.212472 -0.0213,-0.417521 -0.0625,-0.625 -0.52887,2.74322 -4.28585,4.875 -8.84375,4.875 -4.57847,0 -8.34181,-2.145095 -8.84375,-4.90625 z"
         style="fill:#ffffff;fill-opacity:1;stroke:#000000;stroke-width:1;stroke-linecap:round;stroke-linejoin:round;stroke-miterlimit:4;stroke-opacity:1;stroke-dasharray:none;stroke-dashoffset:0" />
      <path
         sodipodi:type="arc"
         style="fill:#ffffff;fill-opacity:1;stroke:#000000;stroke-width:1.09696996;stroke-linecap:round;stroke-linejoin:round;stroke-miterlimit:4;stroke-opacity:1;stroke-dasharray:none;stroke-dashoffset:0"
         id="path3755"
         sodipodi:cx="221.93048"
         sodipodi:cy="53.265671"
         sodipodi:rx="9.7984533"
         sodipodi:ry="6.0557775"
         d="m 231.72893,53.265671 c 0,3.344513 -4.38691,6.055777 -9.79845,6.055777 -5.41154,0 -9.79845,-2.711264 -9.79845,-6.055777 0,-3.344514 4.38691,-6.055778 9.79845,-6.055778 5.41154,0 9.79845,2.711264 9.79845,6.055778 z"
         transform="matrix(0.90921721,0,0,0.91399302,20.690049,1.0884832)" />
    </g>
    <g
       id="g3811">
      <path
         id="path3643"
         d="m 228.96797,42.047174 c -0.0448,0.216985 -0.0625,0.434141 -0.0625,0.65625 0,3.056862 3.98599,5.53125 8.90625,5.53125 4.92026,0 8.90625,-2.474388 8.90625,-5.53125 0,-0.212472 -0.0213,-0.417521 -0.0625,-0.625 -0.52887,2.74322 -4.28585,4.875 -8.84375,4.875 -4.57847,0 -8.34181,-2.145095 -8.84375,-4.90625 z"
         style="fill:#ffffff;fill-opacity:1;stroke:#000000;stroke-width:1;stroke-linecap:round;stroke-linejoin:round;stroke-miterlimit:4;stroke-opacity:1;stroke-dasharray:none;stroke-dashoffset:0" />
      <path
         sodipodi:type="arc"
         style="fill:#ffffff;fill-opacity:1;stroke:#000000;stroke-width:1.09696996;stroke-linecap:round;stroke-linejoin:round;stroke-miterlimit:4;stroke-opacity:1;stroke-dasharray:none;stroke-dashoffset:0"
         id="path3653"
         sodipodi:cx="221.93048"
         sodipodi:cy="53.265671"
         sodipodi:rx="9.7984533"
         sodipodi:ry="6.0557775"
         d="m 231.72893,53.265671 a 9.7984533,6.0557775 0 1 1 -19.5969,0 9.7984533,6.0557775 0 1 1 19.5969,0 z"
         transform="matrix(0.90921721,0,0,0.91399302,36.033018,-7.2705929)" />
    </g>
    <g
       id="g3783">
      <path
         style="fill:#ffffff;fill-opacity:1;stroke:#000000;stroke-width:1;stroke-linecap:round;stroke-linejoin:round;stroke-miterlimit:4;stroke-opacity:1;stroke-dasharray:none;stroke-dashoffset:0"
         d="m 344.04024,108.48418 c -0.0448,0.21699 -0.0625,0.43414 -0.0625,0.65625 0,3.05686 3.98599,5.53125 8.90625,5.53125 4.92026,0 8.90625,-2.47439 8.90625,-5.53125 0,-0.21247 -0.0213,-0.41752 -0.0625,-0.625 -0.52887,2.74322 -4.28585,4.875 -8.84375,4.875 -4.57847,0 -8.34181,-2.14509 -8.84375,-4.90625 z"
         id="path3711" />
      <path
         transform="matrix(0.90921721,0,0,0.91399302,151.10529,59.166415)"
         d="m 231.72893,53.265671 a 9.7984533,6.0557775 0 1 1 -19.5969,0 9.7984533,6.0557775 0 1 1 19.5969,0 z"
         sodipodi:ry="6.0557775"
         sodipodi:rx="9.7984533"
         sodipodi:cy="53.265671"
         sodipodi:cx="221.93048"
         id="path3713"
         style="fill:#ffffff;fill-opacity:1;stroke:#000000;stroke-width:1.09696996;stroke-linecap:round;stroke-linejoin:round;stroke-miterlimit:4;stroke-opacity:1;stroke-dasharray:none;stroke-dashoffset:0"
         sodipodi:type="arc" />
    </g>
    <path
       style="fill:none;stroke:#000000;stroke-width:1px;stroke-linecap:butt;stroke-linejoin:miter;stroke-opacity:1"
       d="m 266.96767,65.551159 1.5343,25.688976 0,5.314961 -1.5343,-25.688976 0,-5.314961 z"
       id="path3832"
       sodipodi:nodetypes="ccccc" />
    <g
       id="g3828">
      <path
         id="path3767"
         d="m 267.32539,90.767646 c -0.0448,0.216985 -0.0625,0.434141 -0.0625,0.65625 0,3.056862 3.98599,5.53125 8.90625,5.53125 4.92026,0 8.90625,-2.474388 8.90625,-5.53125 0,-0.212472 -0.0213,-0.417521 -0.0625,-0.625 -0.52887,2.74322 -4.28585,4.875 -8.84375,4.875 -4.57847,0 -8.34181,-2.145095 -8.84375,-4.90625 z"
         style="fill:#ffffff;fill-opacity:1;stroke:#000000;stroke-width:1;stroke-linecap:round;stroke-linejoin:round;stroke-miterlimit:4;stroke-opacity:1;stroke-dasharray:none;stroke-dashoffset:0" />
      <path
         sodipodi:type="arc"
         style="fill:#ffffff;fill-opacity:1;stroke:#000000;stroke-width:1.09696996;stroke-linecap:round;stroke-linejoin:round;stroke-miterlimit:4;stroke-opacity:1;stroke-dasharray:none;stroke-dashoffset:0"
         id="path3769"
         sodipodi:cx="221.93048"
         sodipodi:cy="53.265671"
         sodipodi:rx="9.7984533"
         sodipodi:ry="6.0557775"
         d="m 231.72893,53.265671 a 9.7984533,6.0557775 0 1 1 -19.5969,0 9.7984533,6.0557775 0 1 1 19.5969,0 z"
         transform="matrix(0.90921721,0,0,0.91399302,74.390443,41.44988)" />
    </g>
    <g
       id="g3840">
      <path
         style="fill:#ffffff;fill-opacity:1;stroke:#000000;stroke-width:1;stroke-linecap:round;stroke-linejoin:round;stroke-miterlimit:4;stroke-opacity:1;stroke-dasharray:none;stroke-dashoffset:0"
         d="m 250.79487,66.016018 c -0.0448,0.216985 -0.0625,0.434141 -0.0625,0.65625 0,3.056862 3.98599,5.53125 8.90625,5.53125 4.92026,0 8.90625,-2.474388 8.90625,-5.53125 0,-0.212472 -0.0213,-0.417521 -0.0625,-0.625 -0.52887,2.74322 -4.28585,4.875 -8.84375,4.875 -4.57847,0 -8.34181,-2.145095 -8.84375,-4.90625 z"
         id="path3739" />
      <path
         transform="matrix(0.90921721,0,0,0.91399302,57.859923,16.698251)"
         d="m 231.72893,53.265671 a 9.7984533,6.0557775 0 1 1 -19.5969,0 9.7984533,6.0557775 0 1 1 19.5969,0 z"
         sodipodi:ry="6.0557775"
         sodipodi:rx="9.7984533"
         sodipodi:cy="53.265671"
         sodipodi:cx="221.93048"
         id="path3741"
         style="fill:#ffffff;fill-opacity:1;stroke:#000000;stroke-width:1.09696996;stroke-linecap:round;stroke-linejoin:round;stroke-miterlimit:4;stroke-opacity:1;stroke-dasharray:none;stroke-dashoffset:0"
         sodipodi:type="arc" />
    </g>
    <path
       sodipodi:nodetypes="ccccccc"
       id="path3844"
       d="m 276.1875,281.68478 0,-26.59375 c 0,-8.85827 -0.016,-8.85212 -7.6875,-13.28125 l -23,-13.28125 c -3.35628,-1.93775 -5.25055,-3.03493 -6.3125,-2.90625 -1.36536,0.16544 -1.375,2.36097 -1.375,7.34375 l 0,26.5625"
       style="fill:none;stroke:#000000;stroke-width:2;stroke-linecap:round;stroke-linejoin:miter;stroke-miterlimit:4;stroke-opacity:1;stroke-dasharray:none" />
  </g>
</svg>
