<?xml version="1.0" encoding="UTF-8" standalone="no"?>
<!-- Created with Inkscape (http://www.inkscape.org/) -->

<svg
   xmlns:dc="http://purl.org/dc/elements/1.1/"
   xmlns:cc="http://creativecommons.org/ns#"
   xmlns:rdf="http://www.w3.org/1999/02/22-rdf-syntax-ns#"
   xmlns:svg="http://www.w3.org/2000/svg"
   xmlns="http://www.w3.org/2000/svg"
   xmlns:sodipodi="http://sodipodi.sourceforge.net/DTD/sodipodi-0.dtd"
   xmlns:inkscape="http://www.inkscape.org/namespaces/inkscape"
   sodipodi:docname="stepperMotor.svg"
   inkscape:version="0.47 r22583"
   version="1.1"
   id="svg2"
   height="1052.3622"
   width="744.09448">
  <sodipodi:namedview
     id="base"
     pagecolor="#ffffff"
     bordercolor="#666666"
     borderopacity="1.0"
     inkscape:pageopacity="0.0"
     inkscape:pageshadow="2"
     inkscape:zoom="1.4956828"
     inkscape:cx="370.75711"
     inkscape:cy="858.19793"
     inkscape:document-units="mm"
     inkscape:current-layer="layer1"
     showgrid="false"
     showguides="true"
     inkscape:guide-bbox="true"
     units="mm"
     inkscape:showpageshadow="false"
     inkscape:window-width="1672"
     inkscape:window-height="1023"
     inkscape:window-x="0"
     inkscape:window-y="0"
     inkscape:window-maximized="0">
    <sodipodi:guide
       id="guide2816"
       position="88.582677,0"
       orientation="1,0" />
    <sodipodi:guide
       id="guide2818"
       position="655.51181,0"
       orientation="1,0" />
  </sodipodi:namedview>
  <defs
     id="defs4">
    <marker
       inkscape:stockid="Arrow1Send"
       orient="auto"
       refY="0.0"
       refX="0.0"
       id="Arrow1Send"
       style="overflow:visible;">
      <path
         id="path4476"
         d="M 0.0,0.0 L 5.0,-5.0 L -12.5,0.0 L 5.0,5.0 L 0.0,0.0 z "
         style="fill-rule:evenodd;stroke:#000000;stroke-width:1.0pt;marker-start:none;"
         transform="scale(0.2) rotate(180) translate(6,0)" />
    </marker>
    <marker
       style="overflow:visible;"
       id="Arrow1Mend"
       refX="0.0"
       refY="0.0"
       orient="auto"
       inkscape:stockid="Arrow1Mend">
      <path
         transform="scale(0.4) rotate(180) translate(10,0)"
         style="fill-rule:evenodd;stroke:#000000;stroke-width:1.0pt;marker-start:none;"
         d="M 0.0,0.0 L 5.0,-5.0 L -12.5,0.0 L 5.0,5.0 L 0.0,0.0 z "
         id="path4322" />
    </marker>
    <marker
       style="overflow:visible"
       id="Arrow1Mstart"
       refX="0.0"
       refY="0.0"
       orient="auto"
       inkscape:stockid="Arrow1Mstart">
      <path
         transform="scale(0.4) translate(10,0)"
         style="fill-rule:evenodd;stroke:#000000;stroke-width:1.0pt;marker-start:none"
         d="M 0.0,0.0 L 5.0,-5.0 L -12.5,0.0 L 5.0,5.0 L 0.0,0.0 z "
         id="path4319" />
    </marker>
    <marker
       style="overflow:visible;"
       id="Arrow1Lend"
       refX="0.0"
       refY="0.0"
       orient="auto"
       inkscape:stockid="Arrow1Lend">
      <path
         transform="scale(0.8) rotate(180) translate(12.5,0)"
         style="fill-rule:evenodd;stroke:#000000;stroke-width:1.0pt;marker-start:none;"
         d="M 0.0,0.0 L 5.0,-5.0 L -12.5,0.0 L 5.0,5.0 L 0.0,0.0 z "
         id="path4316" />
    </marker>
    <inkscape:perspective
       id="perspective10"
       inkscape:persp3d-origin="372.04724 : 350.78739 : 1"
       inkscape:vp_z="744.09448 : 526.18109 : 1"
       inkscape:vp_y="0 : 1000 : 0"
       inkscape:vp_x="0 : 526.18109 : 1"
       sodipodi:type="inkscape:persp3d" />
    <inkscape:perspective
       id="perspective6719"
       inkscape:persp3d-origin="0.5 : 0.33333333 : 1"
       inkscape:vp_z="1 : 0.5 : 1"
       inkscape:vp_y="0 : 1000 : 0"
       inkscape:vp_x="0 : 0.5 : 1"
       sodipodi:type="inkscape:persp3d" />
    <inkscape:perspective
       id="perspective7885"
       inkscape:persp3d-origin="0.5 : 0.33333333 : 1"
       inkscape:vp_z="1 : 0.5 : 1"
       inkscape:vp_y="0 : 1000 : 0"
       inkscape:vp_x="0 : 0.5 : 1"
       sodipodi:type="inkscape:persp3d" />
    <inkscape:perspective
       id="perspective8781"
       inkscape:persp3d-origin="0.5 : 0.33333333 : 1"
       inkscape:vp_z="1 : 0.5 : 1"
       inkscape:vp_y="0 : 1000 : 0"
       inkscape:vp_x="0 : 0.5 : 1"
       sodipodi:type="inkscape:persp3d" />
    <inkscape:perspective
       id="perspective10389"
       inkscape:persp3d-origin="0.5 : 0.33333333 : 1"
       inkscape:vp_z="1 : 0.5 : 1"
       inkscape:vp_y="0 : 1000 : 0"
       inkscape:vp_x="0 : 0.5 : 1"
       sodipodi:type="inkscape:persp3d" />
    <inkscape:perspective
       id="perspective5199"
       inkscape:persp3d-origin="0.5 : 0.33333333 : 1"
       inkscape:vp_z="1 : 0.5 : 1"
       inkscape:vp_y="0 : 1000 : 0"
       inkscape:vp_x="0 : 0.5 : 1"
       sodipodi:type="inkscape:persp3d" />
    <inkscape:perspective
       id="perspective5738"
       inkscape:persp3d-origin="0.5 : 0.33333333 : 1"
       inkscape:vp_z="1 : 0.5 : 1"
       inkscape:vp_y="0 : 1000 : 0"
       inkscape:vp_x="0 : 0.5 : 1"
       sodipodi:type="inkscape:persp3d" />
  </defs>
  <metadata
     id="metadata7">
    <rdf:RDF>
      <cc:Work
         rdf:about="">
        <dc:format>image/svg+xml</dc:format>
        <dc:type
           rdf:resource="http://purl.org/dc/dcmitype/StillImage" />
        <dc:title />
      </cc:Work>
    </rdf:RDF>
  </metadata>
  <g
     transform="translate(0,-2.5390623e-6)"
     id="layer1"
     inkscape:groupmode="layer"
     inkscape:label="Layer 1">
    <rect
       style="fill:#ffffff;stroke:none;stroke-width:1.25000000000000000;stroke-linecap:square;stroke-linejoin:round;stroke-miterlimit:4;stroke-opacity:1;stroke-dasharray:none;stroke-dashoffset:0;fill-opacity:1"
       id="rect5950"
       width="566.92914"
       height="163.13618"
       x="88.58268"
       y="21.394911"
       transform="translate(0,2.5390623e-6)" />
    <text
       xml:space="preserve"
       style="font-size:13px;font-style:normal;font-variant:normal;font-weight:normal;font-stretch:normal;text-align:center;line-height:125%;text-anchor:middle;fill:#000000;fill-opacity:1;stroke:none;font-family:LMRoman12;-inkscape-font-specification:LMRoman12"
       x="164.40773"
       y="184.21075"
       id="text3070"
       sodipodi:linespacing="125%"><tspan
         sodipodi:role="line"
         x="164.40773"
         y="184.21075"
         style="font-size:15px;font-style:normal;font-variant:normal;font-weight:normal;font-stretch:normal;text-align:center;line-height:125%;writing-mode:lr-tb;text-anchor:middle;font-family:LMRoman12;-inkscape-font-specification:LMRoman12"
         id="tspan3072">1</tspan></text>
    <g
       id="g5940"
       transform="matrix(0.9025,0,0,0.9025,16.038358,9.1150185)">
      <path
         id="path3350"
         d="m 193.51398,119.04767 1.88784,2.60137 1.48269,3.15416 -0.51117,0.77481 -3.48315,-0.12195 -3.13436,-0.71194 -1.01575,1.18493 1.18167,2.98891 0.65151,3.42372 -0.68784,0.62328 -3.34301,-0.98409 -2.85904,-1.46904 -1.27852,0.89458 0.40116,3.18911 -0.2202,3.47791 -0.8214,0.43292 -2.9936,-1.78471 -2.40366,-2.13359 -1.46081,0.54852 -0.40499,3.18869 -1.07803,3.31383 -0.90295,0.21509 -2.45517,-2.4732 -1.79803,-2.66457 -1.55125,0.16847 -1.18539,2.98766 -1.86851,2.94158 -0.92799,-0.0163 -1.76297,-3.00611 -1.07894,-3.02777 -1.54426,-0.2233 -1.8909,2.59931 -2.54102,2.38473 -0.89518,-0.24669 -0.96025,-3.3502 -0.29185,-3.20066 -1.4404,-0.60036 -2.47769,2.04761 -3.05463,1.67739 -0.80547,-0.4614 -0.0969,-3.48373 0.51368,-3.17277 -1.24634,-0.93925 -2.90919,1.36658 -3.37561,0.86531 -0.66535,-0.64726 0.77244,-3.39842 1.28662,-2.94549 -0.97341,-1.21954 -3.15753,0.60024 -3.4851,-8.7e-4 -0.48366,-0.79255 1.59332,-3.09962 1.97869,-2.53265 -0.63909,-1.42378 -3.20799,-0.2034 -3.37498,-0.8685 -0.27121,-0.88749 2.31375,-2.60628 2.54647,-1.96125 -0.26549,-1.5376 -3.05599,-0.99483 -3.05321,-1.68025 -0.0419,-0.92758 2.88942,-1.94822 2.95433,-1.26679 0.12516,-1.55543 -2.71269,-1.724044 -2.53917,-2.386463 0.18991,-0.908575 3.28277,-1.168767 3.17642,-0.492103 0.50855,-1.475258 -2.19887,-2.344565 -1.86633,-2.943091 0.4104,-0.83255 3.47053,-0.315553 3.19889,0.313308 0.85949,-1.302787 -1.54675,-2.817545 -1.07552,-3.314722 0.6039,-0.704882 3.44006,0.557697 3.02067,1.098917 1.15614,-1.048024 -0.79747,-3.113796 -0.21725,-3.477829 0.76056,-0.532108 3.19309,1.395285 2.65237,1.815457 1.38071,-0.727107 0.002,-3.214473 0.65411,-3.422917 0.86926,-0.326442 2.74611,2.145742 2.11708,2.417994 1.51802,-0.360958 0.80104,-3.112759 1.48561,-3.152635 0.92262,-0.09988 2.12645,2.760962 1.44929,2.869152 1.56041,0.02729 1.54975,-2.815626 2.22263,-2.684444 0.91894,0.13278 1.37255,3.203424 0.69064,3.13899 1.50418,0.415006 2.20161,-2.341835 2.82034,-2.047367 0.85686,0.356988 0.53275,3.443781 -0.11161,3.212216 1.3539,0.776212 2.7147,-1.720678 3.24084,-1.281724 0.74112,0.558925 -0.34012,3.468236 -0.90749,3.083528 1.11872,1.087954 3.0573,-0.991113 3.4578,-0.435481 0.57903,0.725892 -1.1925,3.274381 -1.64559,2.761151 0.81295,1.331819 3.20806,-0.19949 3.45734,0.43788 0.38012,0.846721 -1.96906,2.875234 -2.28021,2.265387 0.45551,1.492381 3.15714,0.604504 3.23977,1.283929 0.15756,0.914745 -2.62232,2.295002 -2.7721,1.627051 0.0705,1.55879 2.90729,1.3702 2.81868,2.04983 -0.0748,0.92549 -3.11071,1.57095 -3.0897,0.88609 -0.31933,1.52738 2.47552,2.05034 2.22014,2.68609 -0.30234,0.8776 -3.40389,0.74824 -3.21278,0.0898 z"
         style="fill:none;stroke:#000000;stroke-width:1.38504159;stroke-miterlimit:4;stroke-dasharray:none" />
      <path
         transform="matrix(0.61666488,0,0,0.61666281,-28.995333,16.084976)"
         d="m 316.27993,142.05278 c 0,1.95826 -1.58748,3.54574 -3.54574,3.54574 -1.95826,0 -3.54574,-1.58748 -3.54574,-3.54574 0,-1.95826 1.58748,-3.54574 3.54574,-3.54574 1.95826,0 3.54574,1.58748 3.54574,3.54574 z"
         sodipodi:ry="3.5457389"
         sodipodi:rx="3.5457389"
         sodipodi:cy="142.05278"
         sodipodi:cx="312.73419"
         id="path4188"
         style="fill:none;stroke:#000000;stroke-width:2.24602342;stroke-linecap:square;stroke-linejoin:round;stroke-miterlimit:4;stroke-opacity:1;stroke-dasharray:none;stroke-dashoffset:0"
         sodipodi:type="arc" />
      <path
         style="fill:#000000;fill-opacity:1;stroke:none"
         d="m 148.5625,41.375003 0,22.28125 0.65625,0.375 1.46875,1.25 2.59375,-1.25 0.21875,-1.625 1.03125,-3.3125 0.90625,-0.25 2.46875,2.46875 1.84375,2.625 1.53125,-0.1875 1.15625,-3 1.84375,-2.9375 0.90625,0 1.8125,2.96875 1.125,3 1.5625,0.21875 1.84375,-2.625 2.5,-2.40625 0.90625,0.25 1,3.3125 0.15625,1.5 2.21875,1.4375 2.1875,-1.4375 0.21875,-0.09375 0,-22.5625 -32.15625,0 z m 20,13.4375 a 0.25074668,0.25074668 0 0 1 0.0312,0 0.25074668,0.25074668 0 0 1 0.0625,0 l 1,0 a 0.25074668,0.25074668 0 0 1 0.0312,0 0.25074668,0.25074668 0 0 1 0.0937,0.03125 0.25074668,0.25074668 0 0 1 0.0312,0.03125 0.25074668,0.25074668 0 0 1 0.0937,0.125 0.25074668,0.25074668 0 0 1 0,0.0625 l 0,2.90625 0.3125,-0.3125 a 0.25074668,0.25074668 0 0 1 0.125,-0.0625 0.25074668,0.25074668 0 0 1 0.0625,0 0.25074668,0.25074668 0 0 1 0.0625,0 0.25074668,0.25074668 0 0 1 0.0625,0.03125 0.25074668,0.25074668 0 0 1 0.0937,0.09375 0.25074668,0.25074668 0 0 1 0.0312,0.09375 0.25074668,0.25074668 0 0 1 0,0.0625 0.25074668,0.25074668 0 0 1 0,0.0625 l -0.1559,0.46875 a 0.25074668,0.25074668 0 0 1 -0.0312,0.03125 l -0.0312,0.0625 -0.9375,3.25 0,0.0625 a 0.25074668,0.25074668 0 0 1 0,0.0625 l -0.0937,0.4375 a 0.25074668,0.25074668 0 0 1 -0.0312,0.0625 0.25074668,0.25074668 0 0 1 -0.0312,0.03125 0.25074668,0.25074668 0 0 1 -0.125,0.09375 0.25074668,0.25074668 0 0 1 -0.0625,0 0.25074668,0.25074668 0 0 1 -0.0625,0 0.25074668,0.25074668 0 0 1 -0.0625,-0.03125 0.25074668,0.25074668 0 0 1 -0.0937,-0.09375 0.25074668,0.25074668 0 0 1 -0.0312,-0.0625 l -0.125,-0.4375 a 0.25074668,0.25074668 0 0 1 0,-0.0625 l 0,-0.0625 -0.9375,-3.25 -0.0312,-0.0625 a 0.25074668,0.25074668 0 0 1 -0.0312,-0.03125 l -0.1567,-0.46875 a 0.25074668,0.25074668 0 0 1 0,-0.03125 0.25074668,0.25074668 0 0 1 0,-0.0625 0.25074668,0.25074668 0 0 1 0.0312,-0.125 0.25074668,0.25074668 0 0 1 0.0312,-0.03125 0.25074668,0.25074668 0 0 1 0.125,-0.09375 0.25074668,0.25074668 0 0 1 0.0312,0 0.25074668,0.25074668 0 0 1 0.0625,0 0.25074668,0.25074668 0 0 1 0.0937,0.03125 0.25074668,0.25074668 0 0 1 0.0625,0.03125 l 0.34395,0.34375 0,-2.9375 a 0.25074668,0.25074668 0 0 1 0,-0.03125 0.25074668,0.25074668 0 0 1 0.0312,-0.09375 0.25074668,0.25074668 0 0 1 0.0312,-0.03125 0.25074668,0.25074668 0 0 1 0.0937,-0.09375 z m -9,0.125 a 0.25074668,0.25074668 0 0 1 0.0312,0 0.25074668,0.25074668 0 0 1 0.0625,0 l 1,0 a 0.25074668,0.25074668 0 0 1 0.0312,0 0.25074668,0.25074668 0 0 1 0.0937,0.03125 0.25074668,0.25074668 0 0 1 0.0312,0.03125 0.25074668,0.25074668 0 0 1 0.0937,0.125 0.25074668,0.25074668 0 0 1 0,0.0625 l 0,2.90625 0.3125,-0.3125 a 0.25074668,0.25074668 0 0 1 0.125,-0.0625 0.25074668,0.25074668 0 0 1 0.0625,0 0.25074668,0.25074668 0 0 1 0.0625,0 0.25074668,0.25074668 0 0 1 0.0625,0.03125 0.25074668,0.25074668 0 0 1 0.0937,0.09375 0.25074668,0.25074668 0 0 1 0.0312,0.09375 0.25074668,0.25074668 0 0 1 0,0.0625 0.25074668,0.25074668 0 0 1 0,0.0625 l -0.1559,0.46875 a 0.25074668,0.25074668 0 0 1 -0.0312,0.03125 l -0.0312,0.0625 -0.9375,3.25 0,0.0625 a 0.25074668,0.25074668 0 0 1 0,0.0625 l -0.0937,0.4375 a 0.25074668,0.25074668 0 0 1 -0.0312,0.0625 0.25074668,0.25074668 0 0 1 -0.0312,0.03125 0.25074668,0.25074668 0 0 1 -0.125,0.09375 0.25074668,0.25074668 0 0 1 -0.0625,0 0.25074668,0.25074668 0 0 1 -0.0625,0 0.25074668,0.25074668 0 0 1 -0.0625,-0.03125 0.25074668,0.25074668 0 0 1 -0.0937,-0.09375 0.25074668,0.25074668 0 0 1 -0.0312,-0.0625 l -0.12535,-0.4375 a 0.25074668,0.25074668 0 0 1 0,-0.0625 l 0,-0.0625 -0.9375,-3.25 -0.0312,-0.0625 a 0.25074668,0.25074668 0 0 1 -0.0312,-0.03125 l -0.15635,-0.46875 a 0.25074668,0.25074668 0 0 1 0,-0.03125 0.25074668,0.25074668 0 0 1 0,-0.0625 0.25074668,0.25074668 0 0 1 0.0312,-0.125 0.25074668,0.25074668 0 0 1 0.0312,-0.03125 0.25074668,0.25074668 0 0 1 0.125,-0.09375 0.25074668,0.25074668 0 0 1 0.0312,0 0.25074668,0.25074668 0 0 1 0.0625,0 0.25074668,0.25074668 0 0 1 0.0939,0.03125 0.25074668,0.25074668 0 0 1 0.0625,0.03125 l 0.34375,0.34375 0,-2.9375 a 0.25074668,0.25074668 0 0 1 0,-0.03125 0.25074668,0.25074668 0 0 1 0.0312,-0.09375 0.25074668,0.25074668 0 0 1 0.0312,-0.03125 0.25074668,0.25074668 0 0 1 0.0937,-0.09375 z m 18.09375,1.53125 a 0.25074668,0.25074668 0 0 1 0.0312,0 0.25074668,0.25074668 0 0 1 0.0625,0 l 1,0 a 0.25074668,0.25074668 0 0 1 0.0312,0 0.25074668,0.25074668 0 0 1 0.0937,0.03125 0.25074668,0.25074668 0 0 1 0.0312,0.03125 0.25074668,0.25074668 0 0 1 0.0937,0.125 0.25074668,0.25074668 0 0 1 0,0.0625 l 0,2.90625 0.3125,-0.3125 a 0.25074668,0.25074668 0 0 1 0.125,-0.0625 0.25074668,0.25074668 0 0 1 0.0625,0 0.25074668,0.25074668 0 0 1 0.0625,0 0.25074668,0.25074668 0 0 1 0.0625,0.03125 0.25074668,0.25074668 0 0 1 0.0937,0.09375 0.25074668,0.25074668 0 0 1 0.0312,0.09375 0.25074668,0.25074668 0 0 1 0,0.0625 0.25074668,0.25074668 0 0 1 0,0.0625 l -0.15625,0.46875 a 0.25074668,0.25074668 0 0 1 -0.0312,0.03125 l -0.0312,0.0625 -0.9375,3.25 0,0.0625 a 0.25074668,0.25074668 0 0 1 0,0.0625 l -0.0937,0.4375 a 0.25074668,0.25074668 0 0 1 -0.0312,0.0625 0.25074668,0.25074668 0 0 1 -0.0312,0.03125 0.25074668,0.25074668 0 0 1 -0.125,0.09375 0.25074668,0.25074668 0 0 1 -0.0625,0 0.25074668,0.25074668 0 0 1 -0.0625,0 0.25074668,0.25074668 0 0 1 -0.0624,-0.03125 0.25074668,0.25074668 0 0 1 -0.0937,-0.09375 0.25074668,0.25074668 0 0 1 -0.0312,-0.0625 l -0.125,-0.4375 a 0.25074668,0.25074668 0 0 1 0,-0.0625 l 0,-0.0625 -0.9375,-3.25 -0.0312,-0.0625 a 0.25074668,0.25074668 0 0 1 -0.0313,-0.03125 l -0.15625,-0.46875 a 0.25074668,0.25074668 0 0 1 0,-0.03125 0.25074668,0.25074668 0 0 1 0,-0.0625 0.25074668,0.25074668 0 0 1 0.0312,-0.125 0.25074668,0.25074668 0 0 1 0.0312,-0.03125 0.25074668,0.25074668 0 0 1 0.125,-0.09375 0.25074668,0.25074668 0 0 1 0.0312,0 0.25074668,0.25074668 0 0 1 0.0625,0 0.25074668,0.25074668 0 0 1 0.0937,0.03125 0.25074668,0.25074668 0 0 1 0.0625,0.03125 l 0.34375,0.34375 0,-2.9375 a 0.25074668,0.25074668 0 0 1 0,-0.03125 0.25074668,0.25074668 0 0 1 0.0312,-0.09375 0.25074668,0.25074668 0 0 1 0.0312,-0.03125 0.25074668,0.25074668 0 0 1 0.0937,-0.09375 z m -27.1875,0.25 a 0.25074668,0.25074668 0 0 1 0.0312,0 0.25074668,0.25074668 0 0 1 0.0625,0 l 1,0 a 0.25074668,0.25074668 0 0 1 0.0312,0 0.25074668,0.25074668 0 0 1 0.0937,0.03125 0.25074668,0.25074668 0 0 1 0.0312,0.03125 0.25074668,0.25074668 0 0 1 0.0937,0.125 0.25074668,0.25074668 0 0 1 0,0.0625 l 0,2.90625 0.3125,-0.3125 a 0.25074668,0.25074668 0 0 1 0.125,-0.0625 0.25074668,0.25074668 0 0 1 0.0625,0 0.25074668,0.25074668 0 0 1 0.0625,0 0.25074668,0.25074668 0 0 1 0.0625,0.03125 0.25074668,0.25074668 0 0 1 0.0937,0.09375 0.25074668,0.25074668 0 0 1 0.0312,0.09375 0.25074668,0.25074668 0 0 1 0,0.0625 0.25074668,0.25074668 0 0 1 0,0.0625 l -0.15625,0.46875 a 0.25074668,0.25074668 0 0 1 -0.0312,0.03125 l -0.0312,0.0625 -0.9375,3.25 0,0.0625 a 0.25074668,0.25074668 0 0 1 0,0.0625 l -0.0937,0.4375 a 0.25074668,0.25074668 0 0 1 -0.0312,0.0625 0.25074668,0.25074668 0 0 1 -0.0312,0.03125 0.25074668,0.25074668 0 0 1 -0.125,0.09375 0.25074668,0.25074668 0 0 1 -0.0625,0 0.25074668,0.25074668 0 0 1 -0.0625,0 0.25074668,0.25074668 0 0 1 -0.0625,-0.03125 0.25074668,0.25074668 0 0 1 -0.0937,-0.09375 0.25074668,0.25074668 0 0 1 -0.0312,-0.0625 l -0.125,-0.4375 a 0.25074668,0.25074668 0 0 1 0,-0.0625 l 0,-0.0625 -0.9375,-3.25 -0.0312,-0.0625 a 0.25074668,0.25074668 0 0 1 -0.0312,-0.03125 l -0.15625,-0.46875 a 0.25074668,0.25074668 0 0 1 0,-0.03125 0.25074668,0.25074668 0 0 1 0,-0.0625 0.25074668,0.25074668 0 0 1 0.0312,-0.125 0.25074668,0.25074668 0 0 1 0.0312,-0.03125 0.25074668,0.25074668 0 0 1 0.125,-0.09375 0.25074668,0.25074668 0 0 1 0.0312,0 0.25074668,0.25074668 0 0 1 0.0625,0 0.25074668,0.25074668 0 0 1 0.0937,0.03125 0.25074668,0.25074668 0 0 1 0.0625,0.03125 l 0.34375,0.34375 0,-2.9375 a 0.25074668,0.25074668 0 0 1 0,-0.03125 0.25074668,0.25074668 0 0 1 0.0312,-0.09375 0.25074668,0.25074668 0 0 1 0.0312,-0.03125 0.25074668,0.25074668 0 0 1 0.0937,-0.09375 z"
         id="rect3379" />
      <path
         style="fill:none;stroke:#000000;stroke-width:1.38504159;stroke-linecap:square;stroke-linejoin:round;stroke-miterlimit:4;stroke-opacity:1;stroke-dasharray:none;stroke-dashoffset:0"
         d="m 226.95018,87.519518 -22.27702,0 -0.38541,0.655204 -1.23689,1.479732 1.23689,2.605657 1.63801,0.192711 3.31457,1.040615 0.23126,0.905728 -2.44739,2.485916 -2.6401,1.830723 0.19271,1.541656 3.00624,1.15625 2.94842,1.83071 0,0.92499 -2.98696,1.79218 -3.00624,1.1177 -0.21198,1.56093 2.62082,1.84999 2.42812,2.50519 -0.25052,0.90572 -3.33384,1.00208 -1.50312,0.15416 -1.44305,2.22088 1.44305,2.19212 0.11562,0.21197 22.54681,0 0,-32.162812 z"
         id="path4181"
         sodipodi:nodetypes="ccccccccccccccccccccccccccc" />
      <path
         style="fill:none;stroke:#000000;stroke-width:1.38504159;stroke-linecap:square;stroke-linejoin:round;stroke-miterlimit:4;stroke-opacity:1;stroke-dasharray:none;stroke-dashoffset:0"
         d="m 180.7159,166.11957 0,-22.27694 -0.65521,-0.38541 -1.47973,-1.2369 -2.60567,1.2369 -0.19271,1.63801 -1.04063,3.31456 -0.90572,0.23125 -2.48593,-2.44738 -1.83072,-2.64009 -1.54167,0.19271 -1.15624,3.00623 -1.83072,2.94842 -0.92501,0 -1.79218,-2.98696 -1.1177,-3.00624 -1.56093,-0.21197 -1.85,2.62082 -2.5052,2.42811 -0.90573,-0.25053 -1.00208,-3.33383 -0.15416,-1.50311 -2.22088,-1.44304 -2.19213,1.44304 -0.21198,0.11563 0,22.54672 32.16293,0 z"
         id="path4183"
         sodipodi:nodetypes="ccccccccccccccccccccccccccc" />
      <path
         sodipodi:nodetypes="ccccccccccccccccccccccccccc"
         id="path4185"
         d="m 102.04177,119.68233 22.27702,0 0.38542,-0.6552 1.23688,-1.47973 -1.23688,-2.60566 -1.63802,-0.19271 -3.31457,-1.04061 -0.23125,-0.90573 2.44739,-2.48592 2.64009,-1.83072 -0.19271,-1.54166 -3.00624,-1.15624 -2.94842,-1.83071 0,-0.925 2.98696,-1.79217 3.00624,-1.11771 0.21199,-1.560926 -2.62083,-1.849988 -2.42812,-2.505192 0.25053,-0.905719 3.33383,-1.002083 1.50313,-0.154163 1.44304,-2.220868 -1.44304,-2.192126 -0.11563,-0.211977 -22.54681,0 0,32.162812 z"
         style="fill:none;stroke:#000000;stroke-width:1.38504159;stroke-linecap:square;stroke-linejoin:round;stroke-miterlimit:4;stroke-opacity:1;stroke-dasharray:none;stroke-dashoffset:0" />
      <path
         sodipodi:nodetypes="ccccccccccccccccccccccccccc"
         id="rect3379-0"
         d="m 148.5625,41.375003 0,22.276944 0.6552,0.385415 1.47974,1.236885 2.60567,-1.236885 0.19271,-1.638011 1.04062,-3.314563 0.90573,-0.231249 2.48593,2.447381 1.83072,2.640087 1.54166,-0.192707 1.15625,-3.006231 1.83072,-2.948418 0.925,0 1.79218,2.98696 1.11771,3.006231 1.56093,0.211977 1.85,-2.620816 2.5052,-2.42811 0.90572,0.250519 1.00209,3.333833 0.15416,1.503117 2.22087,1.443032 2.19214,-1.443032 0.21198,-0.115625 0,-22.546734 -32.16293,0 z"
         style="fill:none;stroke:#000000;stroke-width:1.38504159;stroke-miterlimit:4;stroke-opacity:1;stroke-dasharray:none" />
      <path
         id="path4976"
         d="m 163.85694,103.2973 0,-82.570978"
         style="fill:none;stroke:#000000;stroke-width:1.10664821;stroke-linecap:butt;stroke-linejoin:miter;stroke-miterlimit:4;stroke-opacity:1;stroke-dasharray:none;stroke-dashoffset:0" />
    </g>
    <text
       sodipodi:linespacing="125%"
       id="text5627"
       y="31.720062"
       x="179.93295"
       style="font-size:13px;font-style:normal;font-variant:normal;font-weight:normal;font-stretch:normal;text-align:end;line-height:125%;text-anchor:end;fill:#000000;fill-opacity:1;stroke:none;font-family:LMRoman12;-inkscape-font-specification:LMRoman12"
       xml:space="preserve"><tspan
         id="tspan5629"
         style="font-size:13px;font-style:normal;font-variant:normal;font-weight:normal;font-stretch:normal;text-align:end;line-height:125%;writing-mode:lr-tb;text-anchor:end;font-family:LMRoman12;-inkscape-font-specification:LMRoman12"
         y="31.720062"
         x="179.93295"
         sodipodi:role="line">0°</tspan></text>
    <g
       id="g5928"
       transform="matrix(0.9025,0,0,0.9025,29.529654,9.1150185)">
      <path
         style="fill:none;stroke:#000000;stroke-width:1.38504159;stroke-miterlimit:4;stroke-dasharray:none"
         d="m 330.81314,120.95444 1.71366,2.71927 1.27322,3.24438 -0.56075,0.73972 -3.46772,-0.3495 -3.08108,-0.91541 -1.09107,1.11596 0.98365,3.05979 0.42619,3.459 -0.72713,0.57696 -3.27148,-1.20063 -2.75684,-1.65288 -1.3343,0.80904 0.19173,3.20852 -0.4472,3.45607 -0.84795,0.37827 -2.87046,-1.97668 -2.25898,-2.28623 -1.49356,0.4518 -0.61267,3.15538 -1.29246,3.23623 -0.91508,0.15557 -2.28816,-2.62848 -1.61991,-2.77646 -1.55893,0.0666 -1.37827,2.90373 -2.0569,2.81308 -0.92492,-0.077 -1.56259,-3.11498 -0.8786,-3.09185 -1.52636,-0.32382 -2.05686,2.47007 -2.69154,2.21344 -0.87714,-0.30471 -0.73907,-3.40583 -0.0819,-3.2129 -1.39804,-0.69328 -2.6063,1.88118 -3.1578,1.47402 -0.77357,-0.5131 0.13116,-3.48261 0.72009,-3.13238 -1.18225,-1.01875 -2.99233,1.17338 -3.42498,0.64269 -0.6216,-0.68939 0.99306,-3.34063 1.47652,-2.85503 -0.89157,-1.28059 -3.19003,0.39244 -3.47757,-0.22881 -0.43079,-0.82248 1.79262,-2.98878 2.1401,-2.39781 -0.54461,-1.46253 -3.18781,-0.41278 -3.31095,-1.08738 -0.21259,-0.90332 2.47925,-2.44938 2.66929,-1.7905 -0.16435,-1.55167 -2.98439,-1.19257 -2.93677,-1.87635 0.0188,-0.92833 3.01066,-1.75507 3.03086,-1.070856 0.22662,-1.543914 -2.59412,-1.897771 -2.37766,-2.547424 0.24894,-0.894208 3.35217,-0.951562 3.2018,-0.283301 0.60396,-1.438838 -2.04083,-2.483359 -1.66985,-3.058854 0.46398,-0.803926 3.48373,-0.08789 3.17155,0.521854 0.94286,-1.243784 -1.35916,-2.912675 -0.85643,-3.377967 0.64872,-0.663875 3.39621,0.781493 2.94233,1.294125 1.22221,-0.970165 -0.59211,-3.159286 0.0107,-3.484592 0.79374,-0.481225 3.095,1.601136 2.52795,1.985043 1.42531,-0.635248 0.21223,-3.20746 0.87658,-3.372807 0.88874,-0.268891 2.59989,2.320752 1.9544,2.55128 1.53839,-0.260901 1.0029,-3.053705 1.68862,-3.048721 0.92719,-0.03932 1.94131,2.894126 1.25854,2.957797 1.55528,0.129287 1.73059,-2.708238 2.39343,-2.53333 0.90829,0.192597 1.1601,3.286334 0.48387,3.17744 1.47381,0.512495 2.35007,-2.192828 2.94819,-1.858525 0.83168,0.412265 0.30638,3.471251 -0.32146,3.198039 1.30023,0.863099 2.82144,-1.539443 3.31772,-1.067019 0.70298,0.6062 -0.56622,3.438565 -1.10722,3.017574 1.04516,1.158791 3.11557,-0.789034 3.47888,-0.208397 0.53033,0.762209 -1.40411,3.189376 -1.82265,2.647613 0.7241,1.382136 3.21424,0.01075 3.42129,0.663063 0.32394,0.86977 -2.1529,2.740294 -2.42348,2.111405 0.35691,1.518977 3.11085,0.809696 3.14886,1.493071 0.0974,0.923092 -2.7668,2.118574 -2.87258,1.44227 -0.0316,1.56006 2.81145,1.55741 2.67858,2.2298 -0.13517,0.91861 -3.20681,1.36414 -3.14103,0.68211 -0.41855,1.50323 2.33614,2.20786 2.03969,2.82554 -0.35908,0.85595 -3.44554,0.52401 -3.21178,-0.12052 z"
         id="path4200" />
      <path
         sodipodi:type="arc"
         style="fill:none;stroke:#000000;stroke-width:2.24602342;stroke-linecap:square;stroke-linejoin:round;stroke-miterlimit:4;stroke-opacity:1;stroke-dasharray:none;stroke-dashoffset:0"
         id="path4210"
         sodipodi:cx="312.73419"
         sodipodi:cy="142.05278"
         sodipodi:rx="3.5457389"
         sodipodi:ry="3.5457389"
         d="m 316.27993,142.05278 c 0,1.95826 -1.58748,3.54574 -3.54574,3.54574 -1.95826,0 -3.54574,-1.58748 -3.54574,-3.54574 0,-1.95826 1.58748,-3.54574 3.54574,-3.54574 1.95826,0 3.54574,1.58748 3.54574,3.54574 z"
         transform="matrix(0.61666488,0,0,0.61666281,109.37217,16.084976)" />
      <path
         style="fill:none;stroke:#000000;stroke-width:1.38504159;stroke-linecap:square;stroke-linejoin:round;stroke-miterlimit:4;stroke-opacity:1;stroke-dasharray:none;stroke-dashoffset:0"
         d="m 286.92047,41.378783 0,22.276944 0.65521,0.385415 1.47973,1.236885 2.60567,-1.236885 0.19271,-1.638011 1.04063,-3.314563 0.90572,-0.231249 2.48593,2.447381 1.83072,2.640087 1.54167,-0.192707 1.15624,-3.006231 1.83072,-2.948418 0.92501,0 1.79218,2.98696 1.1177,3.006231 1.56093,0.211977 1.85,-2.620816 2.5052,-2.42811 0.90573,0.250519 1.00208,3.333833 0.15416,1.503117 2.22088,1.443032 2.19213,-1.443032 0.21198,-0.115625 0,-22.546734 -32.16293,0 z"
         id="path4202"
         sodipodi:nodetypes="ccccccccccccccccccccccccccc" />
      <path
         style="fill:#000000;fill-opacity:1;stroke:none"
         d="m 343.03125,87.531253 -0.375,0.65625 -1.25,1.46875 1.25,2.59375 1.625,0.1875 3.3125,1.0625 0.25,0.90625 -2.4375,2.46875 -2.65625,1.84375 0.1875,1.531247 3,1.15625 2.96875,1.84375 0,0.90625 -3,1.8125 -3,1.125 -0.21875,1.53125 2.625,1.875 2.4375,2.5 -0.25,0.90625 -3.34375,1 -1.5,0.15625 -1.4375,2.21875 1.4375,2.1875 0.125,0.21875 22.53125,0 0,-32.156247 -22.28125,0 z m 3.90625,1.09375 a 0.25074668,0.25074668 0 0 1 0.0312,0 0.25074668,0.25074668 0 0 1 0.0625,0 0.25074668,0.25074668 0 0 1 0.125,0.03125 0.25074668,0.25074668 0 0 1 0.0312,0.03125 0.25074668,0.25074668 0 0 1 0.0937,0.125 0.25074668,0.25074668 0 0 1 0,0.03125 0.25074668,0.25074668 0 0 1 0,0.0625 0.25074668,0.25074668 0 0 1 -0.0311,0.09375 0.25074668,0.25074668 0 0 1 -0.0312,0.0625 l -0.34375,0.34375 2.9375,0 a 0.25074668,0.25074668 0 0 1 0.0312,0 0.25074668,0.25074668 0 0 1 0.0937,0.03125 0.25074668,0.25074668 0 0 1 0.0312,0.03125 0.25074668,0.25074668 0 0 1 0.0937,0.125 0.25074668,0.25074668 0 0 1 0,0.0625 l 0,1 a 0.25074668,0.25074668 0 0 1 0,0.03125 0.25074668,0.25074668 0 0 1 -0.0312,0.09375 0.25074668,0.25074668 0 0 1 -0.0312,0.03125 0.25074668,0.25074668 0 0 1 -0.125,0.09375 0.25074668,0.25074668 0 0 1 -0.0625,0 l -2.90625,0 0.3125,0.3125 a 0.25074668,0.25074668 0 0 1 0.0625,0.125 0.25074668,0.25074668 0 0 1 0,0.0625 0.25074668,0.25074668 0 0 1 0,0.0625 0.25074668,0.25074668 0 0 1 -0.0312,0.0625 0.25074668,0.25074668 0 0 1 -0.0937,0.09375 0.25074668,0.25074668 0 0 1 -0.0937,0.03125 0.25074668,0.25074668 0 0 1 -0.0625,0 0.25074668,0.25074668 0 0 1 -0.0625,0 l -0.46885,-0.15625 a 0.25074668,0.25074668 0 0 1 -0.0312,-0.03125 l -0.0625,-0.03125 -3.25,-0.9375 -0.0625,0 a 0.25074668,0.25074668 0 0 1 -0.0625,0 l -0.4375,-0.09375 a 0.25074668,0.25074668 0 0 1 -0.0625,-0.03125 0.25074668,0.25074668 0 0 1 -0.0312,-0.03125 0.25074668,0.25074668 0 0 1 -0.0937,-0.125 0.25074668,0.25074668 0 0 1 0,-0.0625 0.25074668,0.25074668 0 0 1 0,-0.0625 0.25074668,0.25074668 0 0 1 0.0312,-0.0625 0.25074668,0.25074668 0 0 1 0.0937,-0.09375 0.25074668,0.25074668 0 0 1 0.0625,-0.03125 l 0.4375,-0.125 a 0.25074668,0.25074668 0 0 1 0.0625,0 l 0.0625,0 3.25,-0.9375 0.0625,-0.03125 a 0.25074668,0.25074668 0 0 1 0.0312,-0.03125 l 0.4688,-0.15625 z m 1.78125,9.125 a 0.25074668,0.25074668 0 0 1 0.0312,0 0.25074668,0.25074668 0 0 1 0.0625,0 0.25074668,0.25074668 0 0 1 0.125,0.03125 0.25074668,0.25074668 0 0 1 0.0312,0.03125 0.25074668,0.25074668 0 0 1 0.0937,0.125 0.25074668,0.25074668 0 0 1 0,0.03125 0.25074668,0.25074668 0 0 1 0,0.0625 0.25074668,0.25074668 0 0 1 -0.0312,0.09375 0.25074668,0.25074668 0 0 1 -0.0312,0.0625 l -0.34375,0.34375 2.9375,0 a 0.25074668,0.25074668 0 0 1 0.0312,0 0.25074668,0.25074668 0 0 1 0.0937,0.03125 0.25074668,0.25074668 0 0 1 0.0312,0.03125 0.25074668,0.25074668 0 0 1 0.0937,0.125 0.25074668,0.25074668 0 0 1 0,0.0625 l 0,1 a 0.25074668,0.25074668 0 0 1 0,0.03125 0.25074668,0.25074668 0 0 1 -0.0312,0.09375 0.25074668,0.25074668 0 0 1 -0.0312,0.03125 0.25074668,0.25074668 0 0 1 -0.125,0.09375 0.25074668,0.25074668 0 0 1 -0.0625,0 l -2.90625,0 0.3125,0.3125 a 0.25074668,0.25074668 0 0 1 0.0625,0.125 0.25074668,0.25074668 0 0 1 0,0.0625 0.25074668,0.25074668 0 0 1 0,0.0625 0.25074668,0.25074668 0 0 1 -0.0312,0.0625 0.25074668,0.25074668 0 0 1 -0.0937,0.0937 0.25074668,0.25074668 0 0 1 -0.0937,0.0312 0.25074668,0.25074668 0 0 1 -0.0625,0 0.25074668,0.25074668 0 0 1 -0.0625,0 L 348.25,100.625 a 0.25074668,0.25074668 0 0 1 -0.0312,-0.0312 l -0.0625,-0.0312 -3.25,-0.937497 -0.0625,0 a 0.25074668,0.25074668 0 0 1 -0.0625,0 l -0.4375,-0.09375 a 0.25074668,0.25074668 0 0 1 -0.0625,-0.03135 0.25074668,0.25074668 0 0 1 -0.0312,-0.03125 0.25074668,0.25074668 0 0 1 -0.0937,-0.125 0.25074668,0.25074668 0 0 1 0,-0.0625 0.25074668,0.25074668 0 0 1 0,-0.0625 0.25074668,0.25074668 0 0 1 0.0312,-0.0625 0.25074668,0.25074668 0 0 1 0.0937,-0.09375 0.25074668,0.25074668 0 0 1 0.0625,-0.03125 l 0.4375,-0.125 a 0.25074668,0.25074668 0 0 1 0.0625,0 l 0.0625,0 3.25,-0.9375 0.0625,-0.03125 a 0.25074668,0.25074668 0 0 1 0.0313,-0.03125 l 0.46875,-0.15625 z m 0.125,8.968747 a 0.25074668,0.25074668 0 0 1 0.0312,0 0.25074668,0.25074668 0 0 1 0.0625,0 0.25074668,0.25074668 0 0 1 0.125,0.0312 0.25074668,0.25074668 0 0 1 0.0312,0.0312 0.25074668,0.25074668 0 0 1 0.0937,0.125 0.25074668,0.25074668 0 0 1 0,0.0312 0.25074668,0.25074668 0 0 1 0,0.0625 0.25074668,0.25074668 0 0 1 -0.0312,0.0937 0.25074668,0.25074668 0 0 1 -0.0312,0.0625 l -0.34375,0.34375 2.9375,0 a 0.25074668,0.25074668 0 0 1 0.0312,0 0.25074668,0.25074668 0 0 1 0.0937,0.0312 0.25074668,0.25074668 0 0 1 0.0312,0.0312 0.25074668,0.25074668 0 0 1 0.0937,0.125 0.25074668,0.25074668 0 0 1 0,0.0625 l 0,1 a 0.25074668,0.25074668 0 0 1 0,0.0312 0.25074668,0.25074668 0 0 1 -0.0312,0.0937 0.25074668,0.25074668 0 0 1 -0.0312,0.0312 0.25074668,0.25074668 0 0 1 -0.125,0.0937 0.25074668,0.25074668 0 0 1 -0.0625,0 l -2.90625,0 0.3125,0.3125 a 0.25074668,0.25074668 0 0 1 0.0625,0.125 0.25074668,0.25074668 0 0 1 0,0.0625 0.25074668,0.25074668 0 0 1 0,0.0625 0.25074668,0.25074668 0 0 1 -0.0312,0.0625 0.25074668,0.25074668 0 0 1 -0.0937,0.0937 0.25074668,0.25074668 0 0 1 -0.0937,0.0312 0.25074668,0.25074668 0 0 1 -0.0625,0 0.25074668,0.25074668 0 0 1 -0.0625,0 l -0.46875,-0.15625 a 0.25074668,0.25074668 0 0 1 -0.0312,-0.0312 l -0.0625,-0.0312 -3.25,-0.9375 -0.0625,0 a 0.25074668,0.25074668 0 0 1 -0.0625,0 l -0.4375,-0.0937 a 0.25074668,0.25074668 0 0 1 -0.0625,-0.0312 0.25074668,0.25074668 0 0 1 -0.0312,-0.0312 0.25074668,0.25074668 0 0 1 -0.0937,-0.125 0.25074668,0.25074668 0 0 1 0,-0.0625 0.25074668,0.25074668 0 0 1 0,-0.0625 0.25074668,0.25074668 0 0 1 0.0312,-0.0625 0.25074668,0.25074668 0 0 1 0.0937,-0.0937 0.25074668,0.25074668 0 0 1 0.0625,-0.0312 l 0.4375,-0.125 a 0.25074668,0.25074668 0 0 1 0.0625,0 l 0.0625,0 3.25,-0.9375 0.0625,-0.0312 a 0.25074668,0.25074668 0 0 1 0.0312,-0.0312 l 0.46875,-0.15625 z m -1.65625,9.09375 a 0.25074668,0.25074668 0 0 1 0.0312,0 0.25074668,0.25074668 0 0 1 0.0625,0 0.25074668,0.25074668 0 0 1 0.125,0.0312 0.25074668,0.25074668 0 0 1 0.0312,0.0312 0.25074668,0.25074668 0 0 1 0.0937,0.125 0.25074668,0.25074668 0 0 1 0,0.0312 0.25074668,0.25074668 0 0 1 0,0.0625 0.25074668,0.25074668 0 0 1 -0.0312,0.0937 0.25074668,0.25074668 0 0 1 -0.0312,0.0625 l -0.34375,0.34375 2.9375,0 a 0.25074668,0.25074668 0 0 1 0.0312,0 0.25074668,0.25074668 0 0 1 0.0937,0.0312 0.25074668,0.25074668 0 0 1 0.0312,0.0312 0.25074668,0.25074668 0 0 1 0.0937,0.125 0.25074668,0.25074668 0 0 1 0,0.0625 l 0,1 a 0.25074668,0.25074668 0 0 1 0,0.0312 0.25074668,0.25074668 0 0 1 -0.0312,0.0937 0.25074668,0.25074668 0 0 1 -0.0312,0.0312 0.25074668,0.25074668 0 0 1 -0.125,0.0937 0.25074668,0.25074668 0 0 1 -0.0625,0 l -2.90625,0 0.3125,0.3125 a 0.25074668,0.25074668 0 0 1 0.0625,0.125 0.25074668,0.25074668 0 0 1 0,0.0625 0.25074668,0.25074668 0 0 1 0,0.0625 0.25074668,0.25074668 0 0 1 -0.0312,0.0625 0.25074668,0.25074668 0 0 1 -0.0937,0.0937 0.25074668,0.25074668 0 0 1 -0.0937,0.0312 0.25074668,0.25074668 0 0 1 -0.0625,0 0.25074668,0.25074668 0 0 1 -0.0625,0 l -0.46875,-0.15625 a 0.25074668,0.25074668 0 0 1 -0.0312,-0.0312 l -0.0625,-0.0312 -3.25,-0.9375 -0.0625,0 a 0.25074668,0.25074668 0 0 1 -0.0625,0 l -0.4375,-0.0937 a 0.25074668,0.25074668 0 0 1 -0.0625,-0.0312 0.25074668,0.25074668 0 0 1 -0.0312,-0.0312 0.25074668,0.25074668 0 0 1 -0.0937,-0.125 0.25074668,0.25074668 0 0 1 0,-0.0625 0.25074668,0.25074668 0 0 1 0,-0.0625 0.25074668,0.25074668 0 0 1 0.0312,-0.0625 0.25074668,0.25074668 0 0 1 0.0937,-0.0937 0.25074668,0.25074668 0 0 1 0.0625,-0.0312 l 0.4375,-0.125 a 0.25074668,0.25074668 0 0 1 0.0625,0 l 0.0625,0 3.25,-0.9375 0.0625,-0.0312 a 0.25074668,0.25074668 0 0 1 0.0312,-0.0312 l 0.46875,-0.15625 z"
         id="path4204" />
      <path
         sodipodi:nodetypes="ccccccccccccccccccccccccccc"
         id="path4206"
         d="m 319.0834,166.11957 0,-22.27694 -0.6552,-0.38541 -1.47974,-1.2369 -2.60567,1.2369 -0.19271,1.63801 -1.04062,3.31456 -0.90573,0.23125 -2.48593,-2.44738 -1.83072,-2.64009 -1.54166,0.19271 -1.15625,3.00623 -1.83072,2.94842 -0.925,0 -1.79218,-2.98696 -1.11771,-3.00624 -1.56093,-0.21197 -1.85,2.62082 -2.5052,2.42811 -0.90573,-0.25053 -1.00208,-3.33383 -0.15416,-1.50311 -2.22087,-1.44304 -2.19214,1.44304 -0.21198,0.11563 0,22.54672 32.16293,0 z"
         style="fill:none;stroke:#000000;stroke-width:1.38504159;stroke-linecap:square;stroke-linejoin:round;stroke-miterlimit:4;stroke-opacity:1;stroke-dasharray:none;stroke-dashoffset:0" />
      <path
         style="fill:none;stroke:#000000;stroke-width:1.38504159;stroke-linecap:square;stroke-linejoin:round;stroke-miterlimit:4;stroke-opacity:1;stroke-dasharray:none;stroke-dashoffset:0"
         d="m 240.40928,119.68233 22.27701,0 0.38542,-0.6552 1.23689,-1.47973 -1.23689,-2.60566 -1.63802,-0.19271 -3.31457,-1.04061 -0.23125,-0.90573 2.44739,-2.48592 2.6401,-1.83072 -0.19271,-1.54166 -3.00624,-1.15624 -2.94843,-1.83071 0,-0.925 2.98697,-1.79217 3.00624,-1.11771 0.21198,-1.560926 -2.62083,-1.849988 -2.42812,-2.505192 0.25053,-0.905719 3.33384,-1.002083 1.50312,-0.154163 1.44304,-2.220868 -1.44304,-2.192126 -0.11563,-0.211977 -22.5468,0 0,32.162812 z"
         id="path4208"
         sodipodi:nodetypes="ccccccccccccccccccccccccccc" />
      <path
         sodipodi:nodetypes="ccccccccccccccccccccccccccc"
         id="path4204-1"
         d="m 365.32721,87.51574 -22.27702,0 -0.38541,0.6552 -1.23689,1.47973 1.23689,2.60566 1.63801,0.19271 3.31458,1.04062 0.23125,0.90573 -2.44739,2.48591 -2.6401,1.83072 0.19271,1.54166 3.00624,1.15625 2.94843,1.83071 0,0.92499 -2.98697,1.79218 -3.00624,1.1177 -0.21198,1.56093 2.62082,1.84999 2.42812,2.50519 -0.25051,0.90572 -3.33385,1.00208 -1.50312,0.15416 -1.44304,2.22088 1.44304,2.19212 0.11562,0.21197 22.54681,0 0,-32.16281 z"
         style="fill:none;stroke:#000000;stroke-width:1.38504159;stroke-miterlimit:4;stroke-opacity:1;stroke-dasharray:none" />
      <path
         style="fill:none;stroke:#000000;stroke-width:1.10664821;stroke-linecap:butt;stroke-linejoin:miter;stroke-miterlimit:4;stroke-opacity:1;stroke-dasharray:2.2132964, 1.1066482;stroke-dashoffset:0"
         d="m 302.18064,103.2973 0,-82.570978"
         id="path4978" />
      <path
         inkscape:transform-center-y="-41.728059"
         inkscape:transform-center-x="-2.234555"
         id="path4980"
         d="m 302.21437,103.26571 5.4004,-82.394189"
         style="fill:none;stroke:#000000;stroke-width:1.10664821;stroke-linecap:butt;stroke-linejoin:miter;stroke-miterlimit:4;stroke-opacity:1;stroke-dasharray:none;stroke-dashoffset:0" />
      <path
         sodipodi:nodetypes="ccc"
         id="path4992"
         d="m 302.19271,28.409823 0.0316,-6e-6 c 1.6581,0 3.30368,0.05361 4.9351,0.159192"
         style="fill:none;stroke:#000000;stroke-width:1.1080333;stroke-linecap:square;stroke-linejoin:round;stroke-miterlimit:4;stroke-opacity:1;stroke-dasharray:none;stroke-dashoffset:0;marker-end:url(#Arrow1Send)" />
    </g>
    <text
       xml:space="preserve"
       style="font-size:13px;font-style:normal;font-variant:normal;font-weight:normal;font-stretch:normal;text-align:end;line-height:125%;text-anchor:end;fill:#000000;fill-opacity:1;stroke:none;font-family:LMRoman12;-inkscape-font-specification:LMRoman12"
       x="339.93295"
       y="31.720062"
       id="text5631"
       sodipodi:linespacing="125%"><tspan
         sodipodi:role="line"
         x="339.93295"
         y="31.720062"
         style="font-size:13px;font-style:normal;font-variant:normal;font-weight:normal;font-stretch:normal;text-align:end;line-height:125%;writing-mode:lr-tb;text-anchor:end;font-family:LMRoman12;-inkscape-font-specification:LMRoman12"
         id="tspan5633">3.75°</tspan></text>
    <g
       id="g5916"
       transform="matrix(0.9025,0,0,0.9025,43.020022,9.1148342)">
      <path
         id="path4214"
         d="m 467.9814,122.78983 1.53214,2.82554 1.05831,3.3207 -0.60793,0.70146 -3.43744,-0.57554 -3.01461,-1.11498 -1.16172,1.04221 0.78142,3.11759 0.19905,3.47946 -0.76331,0.52817 -3.18595,-1.41202 -2.64284,-1.82965 -1.38435,0.72004 -0.0185,3.21419 -0.67228,3.41941 -0.87087,0.32201 -2.73504,-2.16019 -2.10461,-2.42908 -1.51992,0.35316 -0.81773,3.10854 -1.50135,3.14477 -0.92329,0.0954 -2.11135,-2.7725 -1.43486,-2.87648 -1.55995,-0.0354 -1.56523,2.80737 -2.23648,2.67253 -0.91791,-0.13733 -1.35551,-3.2105 -0.6745,-3.1427 -1.50192,-0.42295 -2.214,2.33025 -2.83055,2.03266 -0.85533,-0.36143 -0.51473,-3.44687 0.1284,-3.21137 -1.3497,-0.78323 -2.72375,1.70669 -3.24745,1.26432 -0.73835,-0.56258 0.35865,-3.46658 0.92341,-3.07857 -1.11309,-1.09389 -3.06266,0.97516 -3.45968,0.41729 -0.57518,-0.72856 1.20942,-3.26852 1.66009,-2.75236 -0.80591,-1.33616 -3.20887,0.18296 -3.45516,-0.45575 -0.37607,-0.84891 1.98426,-2.86512 2.29234,-2.25272 -0.44779,-1.49502 -3.15399,-0.62038 -3.23274,-1.3016 -0.15306,-0.9153 2.63414,-2.28197 2.78068,-1.61209 -0.0625,-1.5591 -2.90001,-1.38521 -2.80776,-2.0644 0.0795,-0.925108 3.119,-1.554406 3.09441,-0.870339 0.32711,-1.525786 -2.46445,-2.063372 -2.20596,-2.697476 0.30689,-0.876012 3.40723,-0.730282 3.21347,-0.07329 0.69678,-1.396256 -1.87405,-2.611518 -1.46621,-3.161518 0.51556,-0.771859 3.48202,0.140145 3.13063,0.728167 1.02219,-1.179455 -1.16575,-2.995332 -0.63367,-3.426748 0.69075,-0.620026 3.33783,1.001943 2.85139,1.483792 1.28304,-0.888151 -0.38421,-3.191248 0.23858,-3.476431 0.82351,-0.428283 2.98367,1.800132 2.3927,2.146128 1.4638,-0.540668 0.42156,-3.186712 1.09529,-3.308254 0.90443,-0.21019 2.44253,2.485824 1.78336,2.673642 1.55216,-0.159727 1.20047,-2.981573 1.8844,-2.931753 0.92778,0.02141 1.74787,3.014899 1.06239,3.033776 1.5435,0.230731 1.90401,-2.589254 2.55399,-2.371368 0.89375,0.25159 0.94268,3.355171 0.27502,3.202284 1.43714,0.607789 2.48845,-2.034431 3.06343,-1.661725 0.80294,0.465777 0.0787,3.483857 -0.52993,3.170168 1.241,0.94629 2.91608,-1.351616 3.3804,-0.847746 0.66183,0.65088 -0.7899,3.39417 -1.30221,2.938696 0.96714,1.224668 3.1605,-0.583576 3.48506,0.01958 0.47935,0.795262 -1.6097,3.090715 -1.99191,2.522737 0.63215,1.426535 3.20665,0.220958 3.3706,0.885407 0.26636,0.889094 -2.32751,2.593621 -2.55638,1.948381 0.2568,1.539067 3.05123,1.011422 3.04446,1.695821 0.0368,0.92749 -2.89943,1.93308 -2.96076,1.25131 -0.13347,1.55467 2.70357,1.73795 2.52701,2.40021 -0.19496,0.90781 -3.28916,1.15147 -3.17892,0.47523 -0.51597,1.47263 2.18674,2.35592 1.85052,2.95289 -0.41429,0.83063 -3.47244,0.29754 -3.19702,-0.33032 z"
         style="fill:none;stroke:#000000;stroke-width:1.38504159;stroke-miterlimit:4;stroke-dasharray:none" />
      <path
         transform="matrix(0.61666488,0,0,0.61666281,247.73968,16.084976)"
         d="m 316.27993,142.05278 c 0,1.95826 -1.58748,3.54574 -3.54574,3.54574 -1.95826,0 -3.54574,-1.58748 -3.54574,-3.54574 0,-1.95826 1.58748,-3.54574 3.54574,-3.54574 1.95826,0 3.54574,1.58748 3.54574,3.54574 z"
         sodipodi:ry="3.5457389"
         sodipodi:rx="3.5457389"
         sodipodi:cy="142.05278"
         sodipodi:cx="312.73419"
         id="path4224"
         style="fill:none;stroke:#000000;stroke-width:2.24602342;stroke-linecap:square;stroke-linejoin:round;stroke-miterlimit:4;stroke-opacity:1;stroke-dasharray:none;stroke-dashoffset:0"
         sodipodi:type="arc" />
      <path
         sodipodi:nodetypes="ccccccccccccccccccccccccccc"
         id="path4216"
         d="m 425.28798,41.378783 0,22.276944 0.65521,0.385415 1.47973,1.236885 2.60567,-1.236885 0.19271,-1.638011 1.04063,-3.314563 0.90572,-0.231249 2.48593,2.447381 1.83072,2.640087 1.54167,-0.192707 1.15624,-3.006231 1.83072,-2.948418 0.92501,0 1.79218,2.98696 1.1177,3.006231 1.56093,0.211977 1.85,-2.620816 2.5052,-2.42811 0.90573,0.250519 1.00208,3.333833 0.15416,1.503117 2.22088,1.443032 2.19213,-1.443032 0.21198,-0.115625 0,-22.546734 -32.16293,0 z"
         style="fill:none;stroke:#000000;stroke-width:1.38504159;stroke-linecap:square;stroke-linejoin:round;stroke-miterlimit:4;stroke-opacity:1;stroke-dasharray:none;stroke-dashoffset:0" />
      <path
         style="fill:none;stroke:#000000;stroke-width:1.38504159;stroke-linecap:square;stroke-linejoin:round;stroke-miterlimit:4;stroke-opacity:1;stroke-dasharray:none;stroke-dashoffset:0"
         d="m 503.68519,87.519518 -22.27702,0 -0.38541,0.655204 -1.23689,1.479732 1.23689,2.605657 1.63801,0.192711 3.31458,1.040615 0.23125,0.905728 -2.44739,2.485916 -2.6401,1.830723 0.19271,1.541656 3.00624,1.15625 2.94843,1.83071 0,0.92499 -2.98697,1.79218 -3.00624,1.1177 -0.21198,1.56093 2.62082,1.84999 2.42812,2.50519 -0.25051,0.90572 -3.33385,1.00208 -1.50312,0.15416 -1.44304,2.22088 1.44304,2.19212 0.11562,0.21197 22.54681,0 0,-32.162812 z"
         id="path4218"
         sodipodi:nodetypes="ccccccccccccccccccccccccccc" />
      <path
         style="fill:#000000;fill-opacity:1;stroke:none"
         d="m 427.6875,142 -2.1875,1.46875 -0.21875,0.0937 0,22.5625 32.15625,0 0,-22.28125 -0.65625,-0.375 -1.46875,-1.25 -2.59375,1.25 -0.1875,1.625 -1.0625,3.3125 -0.90625,0.25 -2.46875,-2.46875 -1.84375,-2.625 -1.53125,0.1875 -1.15625,3 -1.84375,2.9375 -0.90625,0 -1.8125,-2.96875 -1.09375,-3 -1.5625,-0.21875 -1.875,2.625 -2.5,2.40625 -0.90625,-0.25 -1,-3.3125 -0.15625,-1.5 L 427.6875,142 z m 27.0625,1.09375 a 0.25074668,0.25074668 0 0 1 0.0312,0 0.25074668,0.25074668 0 0 1 0.0625,0 0.25074668,0.25074668 0 0 1 0.0625,0 0.25074668,0.25074668 0 0 1 0.0625,0.0312 0.25074668,0.25074668 0 0 1 0.0937,0.0937 0.25074668,0.25074668 0 0 1 0.0312,0.0625 l 0.125,0.4375 a 0.25074668,0.25074668 0 0 1 0,0.0625 l 0,0.0625 0.9375,3.25 0.0312,0.0625 a 0.25074668,0.25074668 0 0 1 0.0312,0.0312 l 0.15625,0.46875 a 0.25074668,0.25074668 0 0 1 0,0.0312 0.25074668,0.25074668 0 0 1 0,0.0625 0.25074668,0.25074668 0 0 1 -0.0312,0.125 0.25074668,0.25074668 0 0 1 -0.0312,0.0312 0.25074668,0.25074668 0 0 1 -0.125,0.0937 0.25074668,0.25074668 0 0 1 -0.0312,0 0.25074668,0.25074668 0 0 1 -0.0625,0 0.25074668,0.25074668 0 0 1 -0.0937,-0.0312 0.25074668,0.25074668 0 0 1 -0.0625,-0.0312 l -0.34375,-0.34375 0,2.9375 a 0.25074668,0.25074668 0 0 1 0,0.0312 0.25074668,0.25074668 0 0 1 -0.0312,0.0937 0.25074668,0.25074668 0 0 1 -0.0312,0.0312 0.25074668,0.25074668 0 0 1 -0.125,0.0937 0.25074668,0.25074668 0 0 1 -0.0625,0 l -1,0 a 0.25074668,0.25074668 0 0 1 -0.0312,0 0.25074668,0.25074668 0 0 1 -0.0937,-0.0312 0.25074668,0.25074668 0 0 1 -0.0312,-0.0312 0.25074668,0.25074668 0 0 1 -0.0937,-0.125 0.25074668,0.25074668 0 0 1 0,-0.0625 l 0,-2.90625 -0.3125,0.3125 a 0.25074668,0.25074668 0 0 1 -0.125,0.0625 0.25074668,0.25074668 0 0 1 -0.0625,0 0.25074668,0.25074668 0 0 1 -0.0625,0 0.25074668,0.25074668 0 0 1 -0.0625,-0.0312 0.25074668,0.25074668 0 0 1 -0.0937,-0.0937 0.25074668,0.25074668 0 0 1 -0.0312,-0.0937 0.25074668,0.25074668 0 0 1 0,-0.0625 0.25074668,0.25074668 0 0 1 0,-0.0625 l 0.1559,-0.4686 a 0.25074668,0.25074668 0 0 1 0.0312,-0.0312 l 0.0312,-0.0625 0.9375,-3.25 0,-0.0625 a 0.25074668,0.25074668 0 0 1 0,-0.0625 l 0.0937,-0.4375 a 0.25074668,0.25074668 0 0 1 0.0312,-0.0625 0.25074668,0.25074668 0 0 1 0.0312,-0.0312 0.25074668,0.25074668 0 0 1 0.0937,-0.0937 z m -27.1875,0.21875 a 0.25074668,0.25074668 0 0 1 0.0312,0 0.25074668,0.25074668 0 0 1 0.0625,0 0.25074668,0.25074668 0 0 1 0.0625,0 0.25074668,0.25074668 0 0 1 0.0625,0.0312 0.25074668,0.25074668 0 0 1 0.0937,0.0937 0.25074668,0.25074668 0 0 1 0.0312,0.0625 l 0.125,0.4375 a 0.25074668,0.25074668 0 0 1 0,0.0625 l 0,0.0625 0.9375,3.25 0.0312,0.0625 a 0.25074668,0.25074668 0 0 1 0.0312,0.0312 l 0.15625,0.46875 a 0.25074668,0.25074668 0 0 1 0,0.0312 0.25074668,0.25074668 0 0 1 0,0.0625 0.25074668,0.25074668 0 0 1 -0.0312,0.125 0.25074668,0.25074668 0 0 1 -0.0312,0.0312 0.25074668,0.25074668 0 0 1 -0.125,0.0937 0.25074668,0.25074668 0 0 1 -0.0312,0 0.25074668,0.25074668 0 0 1 -0.0625,0 0.25074668,0.25074668 0 0 1 -0.0937,-0.0312 0.25074668,0.25074668 0 0 1 -0.0625,-0.0312 l -0.34375,-0.34375 0,2.9375 a 0.25074668,0.25074668 0 0 1 0,0.0312 0.25074668,0.25074668 0 0 1 -0.0312,0.0937 0.25074668,0.25074668 0 0 1 -0.0312,0.0312 0.25074668,0.25074668 0 0 1 -0.125,0.0937 0.25074668,0.25074668 0 0 1 -0.0625,0 l -1,0 a 0.25074668,0.25074668 0 0 1 -0.0312,0 0.25074668,0.25074668 0 0 1 -0.0937,-0.0312 0.25074668,0.25074668 0 0 1 -0.0312,-0.0312 0.25074668,0.25074668 0 0 1 -0.0937,-0.125 0.25074668,0.25074668 0 0 1 0,-0.0625 l 0,-2.90625 -0.3125,0.3125 a 0.25074668,0.25074668 0 0 1 -0.125,0.0625 0.25074668,0.25074668 0 0 1 -0.0625,0 0.25074668,0.25074668 0 0 1 -0.0625,0 0.25074668,0.25074668 0 0 1 -0.0625,-0.0312 0.25074668,0.25074668 0 0 1 -0.0937,-0.0937 0.25074668,0.25074668 0 0 1 -0.0312,-0.0937 0.25074668,0.25074668 0 0 1 0,-0.0625 0.25074668,0.25074668 0 0 1 0,-0.0625 l 0.15625,-0.46875 a 0.25074668,0.25074668 0 0 1 0.0312,-0.0312 l 0.0312,-0.0625 0.9375,-3.25 0,-0.0625 a 0.25074668,0.25074668 0 0 1 0,-0.0625 l 0.0937,-0.4375 a 0.25074668,0.25074668 0 0 1 0.0312,-0.0625 0.25074668,0.25074668 0 0 1 0.0312,-0.0312 0.25074668,0.25074668 0 0 1 0.0937,-0.0937 z m 18.09375,1.53125 a 0.25074668,0.25074668 0 0 1 0.0312,0 0.25074668,0.25074668 0 0 1 0.0625,0 0.25074668,0.25074668 0 0 1 0.0625,0 0.25074668,0.25074668 0 0 1 0.0625,0.0312 0.25074668,0.25074668 0 0 1 0.0937,0.0937 0.25074668,0.25074668 0 0 1 0.0312,0.0625 l 0.125,0.4375 a 0.25074668,0.25074668 0 0 1 0,0.0625 l 0,0.0625 0.9375,3.25 0.0312,0.0625 a 0.25074668,0.25074668 0 0 1 0.0312,0.0312 l 0.15625,0.46875 a 0.25074668,0.25074668 0 0 1 0,0.0312 0.25074668,0.25074668 0 0 1 0,0.0625 0.25074668,0.25074668 0 0 1 -0.0312,0.125 0.25074668,0.25074668 0 0 1 -0.0312,0.0312 0.25074668,0.25074668 0 0 1 -0.125,0.0937 0.25074668,0.25074668 0 0 1 -0.0312,0 0.25074668,0.25074668 0 0 1 -0.0625,0 0.25074668,0.25074668 0 0 1 -0.0937,-0.0312 0.25074668,0.25074668 0 0 1 -0.0625,-0.0312 l -0.34375,-0.34375 0,2.9375 a 0.25074668,0.25074668 0 0 1 0,0.0312 0.25074668,0.25074668 0 0 1 -0.0312,0.0937 0.25074668,0.25074668 0 0 1 -0.0312,0.0312 0.25074668,0.25074668 0 0 1 -0.125,0.0937 0.25074668,0.25074668 0 0 1 -0.0625,0 l -1,0 a 0.25074668,0.25074668 0 0 1 -0.0312,0 0.25074668,0.25074668 0 0 1 -0.0937,-0.0312 0.25074668,0.25074668 0 0 1 -0.0312,-0.0312 0.25074668,0.25074668 0 0 1 -0.0937,-0.125 0.25074668,0.25074668 0 0 1 0,-0.0625 l 0,-2.90625 -0.3125,0.3125 a 0.25074668,0.25074668 0 0 1 -0.125,0.0625 0.25074668,0.25074668 0 0 1 -0.0625,0 0.25074668,0.25074668 0 0 1 -0.0625,0 0.25074668,0.25074668 0 0 1 -0.0625,-0.0312 0.25074668,0.25074668 0 0 1 -0.0937,-0.0937 0.25074668,0.25074668 0 0 1 -0.0312,-0.0937 0.25074668,0.25074668 0 0 1 0,-0.0625 0.25074668,0.25074668 0 0 1 0,-0.0625 l 0.15625,-0.46875 a 0.25074668,0.25074668 0 0 1 0.0312,-0.0312 l 0.0312,-0.0625 0.9375,-3.25 0,-0.0625 a 0.25074668,0.25074668 0 0 1 0,-0.0625 l 0.0937,-0.4375 a 0.25074668,0.25074668 0 0 1 0.0312,-0.0625 0.25074668,0.25074668 0 0 1 0.0312,-0.0312 0.25074668,0.25074668 0 0 1 0.0937,-0.0937 z m -9,0.125 a 0.25074668,0.25074668 0 0 1 0.0312,0 0.25074668,0.25074668 0 0 1 0.0625,0 0.25074668,0.25074668 0 0 1 0.0625,0 0.25074668,0.25074668 0 0 1 0.0625,0.0312 0.25074668,0.25074668 0 0 1 0.0937,0.0937 0.25074668,0.25074668 0 0 1 0.0312,0.0625 l 0.125,0.4375 a 0.25074668,0.25074668 0 0 1 0,0.0625 l 0,0.0625 0.9375,3.25 0.0312,0.0625 a 0.25074668,0.25074668 0 0 1 0.0312,0.0312 l 0.15625,0.46875 a 0.25074668,0.25074668 0 0 1 0,0.0312 0.25074668,0.25074668 0 0 1 0,0.0625 0.25074668,0.25074668 0 0 1 -0.0312,0.125 0.25074668,0.25074668 0 0 1 -0.0312,0.0312 0.25074668,0.25074668 0 0 1 -0.125,0.0937 0.25074668,0.25074668 0 0 1 -0.0312,0 0.25074668,0.25074668 0 0 1 -0.0625,0 0.25074668,0.25074668 0 0 1 -0.0937,-0.0312 0.25074668,0.25074668 0 0 1 -0.0625,-0.0312 l -0.34375,-0.34375 0,2.9375 a 0.25074668,0.25074668 0 0 1 0,0.0312 0.25074668,0.25074668 0 0 1 -0.0312,0.0937 0.25074668,0.25074668 0 0 1 -0.0312,0.0312 0.25074668,0.25074668 0 0 1 -0.125,0.0937 0.25074668,0.25074668 0 0 1 -0.0625,0 l -1,0 a 0.25074668,0.25074668 0 0 1 -0.0312,0 0.25074668,0.25074668 0 0 1 -0.0937,-0.0312 0.25074668,0.25074668 0 0 1 -0.0312,-0.0312 0.25074668,0.25074668 0 0 1 -0.0937,-0.125 0.25074668,0.25074668 0 0 1 0,-0.0625 l 0,-2.90625 -0.3125,0.3125 a 0.25074668,0.25074668 0 0 1 -0.125,0.0625 0.25074668,0.25074668 0 0 1 -0.0625,0 0.25074668,0.25074668 0 0 1 -0.0625,0 0.25074668,0.25074668 0 0 1 -0.0625,-0.0312 0.25074668,0.25074668 0 0 1 -0.0937,-0.0937 0.25074668,0.25074668 0 0 1 -0.0312,-0.0937 0.25074668,0.25074668 0 0 1 0,-0.0625 0.25074668,0.25074668 0 0 1 0,-0.0625 l 0.15625,-0.46875 a 0.25074668,0.25074668 0 0 1 0.0312,-0.0312 l 0.0312,-0.0625 0.9375,-3.25 0,-0.0625 a 0.25074668,0.25074668 0 0 1 0,-0.0625 l 0.0937,-0.4375 a 0.25074668,0.25074668 0 0 1 0.0312,-0.0625 0.25074668,0.25074668 0 0 1 0.0312,-0.0312 0.25074668,0.25074668 0 0 1 0.0937,-0.0937 z"
         id="path4220" />
      <path
         sodipodi:nodetypes="ccccccccccccccccccccccccccc"
         id="path4222"
         d="m 378.77679,119.68233 22.27701,0 0.38542,-0.6552 1.23689,-1.47973 -1.23689,-2.60566 -1.63802,-0.19271 -3.31457,-1.04061 -0.23125,-0.90573 2.44739,-2.48592 2.6401,-1.83072 -0.19271,-1.54166 -3.00624,-1.15624 -2.94843,-1.83071 0,-0.925 2.98697,-1.79217 3.00624,-1.11771 0.21198,-1.560926 -2.62083,-1.849988 -2.42812,-2.505192 0.25053,-0.905719 3.33384,-1.002083 1.50312,-0.154163 1.44304,-2.220868 -1.44304,-2.192126 -0.11563,-0.211977 -22.5468,0 0,32.162812 z"
         style="fill:none;stroke:#000000;stroke-width:1.38504159;stroke-linecap:square;stroke-linejoin:round;stroke-miterlimit:4;stroke-opacity:1;stroke-dasharray:none;stroke-dashoffset:0" />
      <path
         style="fill:none;stroke:#000000;stroke-width:1.38504159;stroke-miterlimit:4;stroke-opacity:1;stroke-dasharray:none"
         d="m 457.46044,166.11579 0,-22.27694 -0.6552,-0.38541 -1.47974,-1.2369 -2.60567,1.2369 -0.19271,1.63801 -1.04062,3.31456 -0.90573,0.23125 -2.48593,-2.44738 -1.83072,-2.64009 -1.54166,0.19271 -1.15625,3.00623 -1.83072,2.94842 -0.925,0 -1.79218,-2.98696 -1.11771,-3.00624 -1.56093,-0.21197 -1.85,2.62082 -2.5052,2.42811 -0.90573,-0.25053 -1.00208,-3.33383 -0.15416,-1.50311 -2.22087,-1.44304 -2.19214,1.44304 -0.21198,0.11563 0,22.54672 32.16293,0 z"
         id="path4220-5"
         sodipodi:nodetypes="ccccccccccccccccccccccccccc" />
      <path
         id="path4982"
         d="m 440.67617,103.2973 0,-82.570978"
         style="fill:none;stroke:#000000;stroke-width:1.10664821;stroke-linecap:butt;stroke-linejoin:miter;stroke-miterlimit:4;stroke-opacity:1;stroke-dasharray:2.2132964, 1.1066482;stroke-dashoffset:0" />
      <path
         inkscape:transform-center-y="-41.49257"
         inkscape:transform-center-x="-4.958915"
         style="fill:none;stroke:#000000;stroke-width:1.10664821;stroke-linecap:butt;stroke-linejoin:miter;stroke-miterlimit:4;stroke-opacity:1;stroke-dasharray:none;stroke-dashoffset:0"
         d="M 440.74562,103.23639 451.5233,21.371819"
         id="path4984" />
      <path
         sodipodi:nodetypes="csc"
         id="path4992-4"
         d="m 440.59187,28.409714 c 0.0316,0 0.0632,2e-5 0.0948,5.9e-5 3.33485,0.0041 6.61888,0.225077 9.83877,0.649559"
         style="fill:none;stroke:#000000;stroke-width:1.38504159;stroke-linecap:square;stroke-linejoin:round;stroke-miterlimit:4;stroke-opacity:1;stroke-dashoffset:0;marker-end:url(#Arrow1Send)" />
    </g>
    <text
       sodipodi:linespacing="125%"
       id="text5635"
       y="31.720062"
       x="475.93295"
       style="font-size:13px;font-style:normal;font-variant:normal;font-weight:normal;font-stretch:normal;text-align:end;line-height:125%;text-anchor:end;fill:#000000;fill-opacity:1;stroke:none;font-family:LMRoman12;-inkscape-font-specification:LMRoman12"
       xml:space="preserve"><tspan
         id="tspan5637"
         style="font-size:13px;font-style:normal;font-variant:normal;font-weight:normal;font-stretch:normal;text-align:end;line-height:125%;writing-mode:lr-tb;text-anchor:end;font-family:LMRoman12;-inkscape-font-specification:LMRoman12"
         y="31.720062"
         x="475.93295"
         sodipodi:role="line">7.5°</tspan></text>
    <g
       id="g5904"
       transform="matrix(0.9025,0,0,0.9025,56.511316,9.1150185)">
      <path
         style="fill:none;stroke:#000000;stroke-width:1.38504159;stroke-miterlimit:4;stroke-dasharray:none"
         d="m 605.03024,124.53442 1.34406,2.9197 0.83886,3.38279 -0.6525,0.6602 -3.39244,-0.79913 -2.93523,-1.30974 -1.2274,0.964 0.57585,3.16201 -0.029,3.48504 -0.79622,0.47711 -3.08678,-1.61737 -2.51751,-1.99858 -1.42848,0.62796 -0.22868,3.2061 -0.89448,3.36812 -0.89007,0.26435 -2.5879,-2.33443 -1.94123,-2.56153 -1.53976,0.25299 -1.01929,3.04841 -1.70382,3.03984 -0.92755,0.0348 -1.9255,-2.90466 -1.24365,-2.96416 -1.5543,-0.13735 -1.74549,2.69899 -2.40648,2.52054 -0.90696,-0.19707 -1.14264,-3.2923 -0.46751,-3.18007 -1.47104,-0.52029 -2.36167,2.18047 -2.95743,1.84318 -0.82986,-0.41659 -0.28819,-3.47317 0.33816,-3.19609 -1.29559,-0.86982 -2.82954,1.52489 -3.32318,1.04922 -0.69998,-0.60967 0.58461,-3.4357 1.12278,-3.01159 -1.03916,-1.16435 -3.11988,0.77277 -3.47957,0.19013 -0.5263,-0.76463 1.4206,-3.18242 1.83655,-2.63788 -0.71679,-1.38601 -3.21397,-0.0273 -3.41795,-0.68077 -0.31975,-0.87167 2.1674,-2.72922 2.43477,-2.09796 -0.34905,-1.52111 -3.10667,-0.82533 -3.14068,-1.51025 -0.0929,-0.92335 2.77774,-2.1048 2.88017,-1.42677 0.0396,-1.55986 -2.8032,-1.57191 -2.66673,-2.243614 0.13993,-0.917918 3.21399,-1.347085 3.1447,-0.666091 0.4262,-1.501126 -2.32422,-2.220136 -2.02481,-2.835978 0.36352,-0.854065 3.4477,-0.505875 3.21139,0.137038 0.7866,-1.347696 -1.69923,-2.728495 -1.2563,-3.250644 0.56494,-0.736487 3.4654,0.36758 3.0763,0.931361 1.09714,-1.110075 -0.96735,-3.065163 -0.40819,-3.460854 0.72982,-0.573522 3.26515,1.218102 2.74824,1.667106 1.33838,-0.802336 -0.17467,-3.209542 0.46544,-3.453385 0.84976,-0.373505 2.85955,1.991419 2.24721,2.298022 1.49603,-0.443772 0.62908,-3.152318 1.30931,-3.229536 0.91624,-0.150588 2.27472,2.640251 1.60468,2.784556 1.55928,-0.05787 1.39291,-2.896676 2.07211,-2.80223 0.92439,0.08204 1.54695,3.122759 0.86169,3.096764 1.52511,0.331187 2.06928,-2.459182 2.70361,-2.199252 0.87538,0.309505 0.72123,3.409643 0.065,3.213414 1.39431,0.700482 2.61618,-1.867323 3.16555,-1.457809 0.77076,0.517295 -0.14932,3.481545 -0.73614,3.12872 1.17646,1.025429 2.99823,-1.158001 3.42861,-0.624842 0.61784,0.692772 -1.01019,3.335241 -1.49163,2.847236 0.88498,1.285299 3.1919,-0.37562 3.47631,0.247472 0.42631,0.824909 -1.80839,2.978818 -2.15264,2.387059 0.5375,1.464825 3.18533,0.430211 3.30547,1.103958 0.20764,0.904612 -2.49215,2.435841 -2.67834,1.777014 0.15559,1.552576 2.97855,1.20881 2.92703,1.89131 -0.0239,0.9279 -3.01965,1.73932 -3.03626,1.05498 -0.23487,1.54261 2.58411,1.91106 2.36462,2.56034 -0.25391,0.89311 -3.35743,0.9339 -3.2032,0.26629 -0.61118,1.43573 2.02798,2.49389 1.65343,3.06761 -0.46773,0.80176 -3.48447,0.0698 -3.16857,-0.53872 z"
         id="path4228" />
      <path
         style="fill:none;stroke:#000000;stroke-width:1.38504159;stroke-linecap:square;stroke-linejoin:round;stroke-miterlimit:4;stroke-opacity:1;stroke-dasharray:none;stroke-dashoffset:0"
         d="m 563.65547,41.378783 0,22.276944 0.65521,0.385415 1.47973,1.236885 2.60567,-1.236885 0.19271,-1.638011 1.04063,-3.314563 0.90572,-0.231249 2.48593,2.447381 1.83072,2.640087 1.54167,-0.192707 1.15624,-3.006231 1.83072,-2.948418 0.92501,0 1.79218,2.98696 1.1177,3.006231 1.56093,0.211977 1.85,-2.620816 2.5052,-2.42811 0.90573,0.250519 1.00208,3.333833 0.15416,1.503117 2.22088,1.443032 2.19213,-1.443032 0.21198,-0.115625 0,-22.546734 -32.16293,0 z"
         id="path4230"
         sodipodi:nodetypes="ccccccccccccccccccccccccccc" />
      <path
         sodipodi:nodetypes="ccccccccccccccccccccccccccc"
         id="path4232"
         d="m 642.05268,87.519518 -22.27702,0 -0.38541,0.655204 -1.23689,1.479732 1.23689,2.605657 1.63801,0.192711 3.31458,1.040615 0.23125,0.905728 -2.44739,2.485916 -2.6401,1.830723 0.19271,1.541656 3.00624,1.15625 2.94843,1.83071 0,0.92499 -2.98697,1.79218 -3.00624,1.1177 -0.21198,1.56093 2.62082,1.84999 2.42812,2.50519 -0.25051,0.90572 -3.33385,1.00208 -1.50312,0.15416 -1.44304,2.22088 1.44304,2.19212 0.11562,0.21197 22.54681,0 0,-32.162812 z"
         style="fill:none;stroke:#000000;stroke-width:1.38504159;stroke-linecap:square;stroke-linejoin:round;stroke-miterlimit:4;stroke-opacity:1;stroke-dasharray:none;stroke-dashoffset:0" />
      <path
         sodipodi:nodetypes="ccccccccccccccccccccccccccc"
         id="path4234"
         d="m 595.8184,166.11957 0,-22.27694 -0.6552,-0.38541 -1.47974,-1.2369 -2.60567,1.2369 -0.19271,1.63801 -1.04062,3.31456 -0.90573,0.23125 -2.48593,-2.44738 -1.83072,-2.64009 -1.54166,0.19271 -1.15625,3.00623 -1.83072,2.94842 -0.925,0 -1.79218,-2.98696 -1.11771,-3.00624 -1.56093,-0.21197 -1.85,2.62082 -2.5052,2.42811 -0.90573,-0.25053 -1.00208,-3.33383 -0.15416,-1.50311 -2.22087,-1.44304 -2.19214,1.44304 -0.21198,0.11563 0,22.54672 32.16293,0 z"
         style="fill:none;stroke:#000000;stroke-width:1.38504159;stroke-linecap:square;stroke-linejoin:round;stroke-miterlimit:4;stroke-opacity:1;stroke-dasharray:none;stroke-dashoffset:0" />
      <path
         style="fill:#000000;fill-opacity:1;stroke:none"
         d="m 517.15625,87.531253 0,32.156247 22.25,0 0.40625,-0.65625 1.21875,-1.46875 -1.21875,-2.625 -1.65625,-0.1875 -3.3125,-1.03125 -0.21875,-0.90625 2.4375,-2.5 2.65625,-1.8125 -0.1875,-1.5625 -3.03125,-1.15625 -2.9375,-1.8125 0,-0.9375 3,-1.78125 3,-1.125 0.21875,-1.562497 -2.625,-1.84375 -2.4375,-2.5 0.25,-0.90625 3.34375,-1 1.5,-0.15625 1.4375,-2.21875 -1.4375,-2.21875 -0.125,-0.1875 -22.53125,0 z m 17.53125,0.78125 a 0.25074668,0.25074668 0 0 1 0.0312,0 0.25074668,0.25074668 0 0 1 0.0625,0 0.25074668,0.25074668 0 0 1 0.0625,0 l 0.46875,0.15625 a 0.25074668,0.25074668 0 0 1 0.0312,0.03125 l 0.0625,0.03125 3.25,0.9375 0.0625,0 a 0.25074668,0.25074668 0 0 1 0.0625,0 l 0.4375,0.09375 a 0.25074668,0.25074668 0 0 1 0.0625,0.03125 0.25074668,0.25074668 0 0 1 0.0312,0.03125 0.25074668,0.25074668 0 0 1 0.0937,0.125 0.25074668,0.25074668 0 0 1 0,0.0625 0.25074668,0.25074668 0 0 1 0,0.0625 0.25074668,0.25074668 0 0 1 -0.0312,0.0625 0.25074668,0.25074668 0 0 1 -0.0937,0.09375 0.25074668,0.25074668 0 0 1 -0.0625,0.03125 l -0.4375,0.125 a 0.25074668,0.25074668 0 0 1 -0.0625,0 l -0.0625,0 -3.25,0.9375 -0.0625,0.03125 a 0.25074668,0.25074668 0 0 1 -0.0312,0.03125 l -0.46875,0.15625 a 0.25074668,0.25074668 0 0 1 -0.0312,0 0.25074668,0.25074668 0 0 1 -0.0625,0 0.25074668,0.25074668 0 0 1 -0.125,-0.03125 0.25074668,0.25074668 0 0 1 -0.0312,-0.03125 0.25074668,0.25074668 0 0 1 -0.0937,-0.125 0.25074668,0.25074668 0 0 1 0,-0.03125 0.25074668,0.25074668 0 0 1 0,-0.0625 0.25074668,0.25074668 0 0 1 0.0312,-0.09375 0.25074668,0.25074668 0 0 1 0.0312,-0.0625 l 0.34375,-0.34375 -2.9375,0 a 0.25074668,0.25074668 0 0 1 -0.0312,0 0.25074668,0.25074668 0 0 1 -0.0937,-0.03125 0.25074668,0.25074668 0 0 1 -0.0312,-0.03125 0.25074668,0.25074668 0 0 1 -0.0937,-0.125 0.25074668,0.25074668 0 0 1 0,-0.0625 l 0,-1 a 0.25074668,0.25074668 0 0 1 0,-0.03125 0.25074668,0.25074668 0 0 1 0.0312,-0.09375 0.25074668,0.25074668 0 0 1 0.0312,-0.03125 0.25074668,0.25074668 0 0 1 0.125,-0.09375 0.25074668,0.25074668 0 0 1 0.0625,0 l 2.90625,0 -0.3125,-0.3125 c 0.06,0.06594 -0.0832,-0.163684 -0.0625,-0.25 -0.0866,0.16303 0.0642,-0.181103 0.1875,-0.1875 z m -1.65625,9.09375 a 0.25074668,0.25074668 0 0 1 0.0312,0 0.25074668,0.25074668 0 0 1 0.0625,0 0.25074668,0.25074668 0 0 1 0.0625,0 l 0.46875,0.15625 a 0.25074668,0.25074668 0 0 1 0.0312,0.03125 l 0.0625,0.03125 3.25,0.9375 0.0625,0 a 0.25074668,0.25074668 0 0 1 0.0625,0 l 0.4375,0.09375 a 0.25074668,0.25074668 0 0 1 0.0625,0.03125 0.25074668,0.25074668 0 0 1 0.0312,0.03125 0.25074668,0.25074668 0 0 1 0.0937,0.125 0.25074668,0.25074668 0 0 1 0,0.0625 0.25074668,0.25074668 0 0 1 0,0.0625 0.25074668,0.25074668 0 0 1 -0.0312,0.0625 0.25074668,0.25074668 0 0 1 -0.0937,0.09375 0.25074668,0.25074668 0 0 1 -0.0625,0.03125 l -0.4375,0.125 a 0.25074668,0.25074668 0 0 1 -0.0625,0 l -0.0625,0 -3.25,0.937497 -0.0625,0.0312 a 0.25074668,0.25074668 0 0 1 -0.0312,0.0312 l -0.46875,0.15625 a 0.25074668,0.25074668 0 0 1 -0.0312,0 0.25074668,0.25074668 0 0 1 -0.0625,0 0.25074668,0.25074668 0 0 1 -0.125,-0.0312 0.25074668,0.25074668 0 0 1 -0.0312,-0.0312 0.25074668,0.25074668 0 0 1 -0.0937,-0.125 0.25074668,0.25074668 0 0 1 0,-0.0312 0.25074668,0.25074668 0 0 1 0,-0.0625 0.25074668,0.25074668 0 0 1 0.0312,-0.0937 0.25074668,0.25074668 0 0 1 0.0312,-0.0625 l 0.34375,-0.343747 -2.9375,0 a 0.25074668,0.25074668 0 0 1 -0.0312,0 0.25074668,0.25074668 0 0 1 -0.0937,-0.03125 0.25074668,0.25074668 0 0 1 -0.0312,-0.03125 0.25074668,0.25074668 0 0 1 -0.0937,-0.125 0.25074668,0.25074668 0 0 1 0,-0.0625 l 0,-1 a 0.25074668,0.25074668 0 0 1 0,-0.03125 0.25074668,0.25074668 0 0 1 0.0312,-0.09375 0.25074668,0.25074668 0 0 1 0.0312,-0.03125 0.25074668,0.25074668 0 0 1 0.125,-0.09375 0.25074668,0.25074668 0 0 1 0.0625,0 l 2.90625,0 -0.3125,-0.3125 c 0.06,0.06594 -0.0832,-0.163684 -0.0625,-0.25 -0.0866,0.16303 0.0642,-0.181103 0.1875,-0.1875 z m 0.125,8.968747 a 0.25074668,0.25074668 0 0 1 0.0312,0 0.25074668,0.25074668 0 0 1 0.0625,0 0.25074668,0.25074668 0 0 1 0.0625,0 l 0.46875,0.15625 a 0.25074668,0.25074668 0 0 1 0.0312,0.0312 l 0.0625,0.0312 3.25,0.9375 0.0625,0 a 0.25074668,0.25074668 0 0 1 0.0625,0 l 0.4375,0.0937 a 0.25074668,0.25074668 0 0 1 0.0625,0.0312 0.25074668,0.25074668 0 0 1 0.0312,0.0312 0.25074668,0.25074668 0 0 1 0.0937,0.125 0.25074668,0.25074668 0 0 1 0,0.0625 0.25074668,0.25074668 0 0 1 0,0.0625 0.25074668,0.25074668 0 0 1 -0.0312,0.0625 0.25074668,0.25074668 0 0 1 -0.0937,0.0937 0.25074668,0.25074668 0 0 1 -0.0625,0.0312 l -0.4375,0.125 a 0.25074668,0.25074668 0 0 1 -0.0625,0 l -0.0625,0 -3.25,0.9375 -0.0625,0.0312 a 0.25074668,0.25074668 0 0 1 -0.0312,0.0312 l -0.46875,0.15625 a 0.25074668,0.25074668 0 0 1 -0.0312,0 0.25074668,0.25074668 0 0 1 -0.0625,0 0.25074668,0.25074668 0 0 1 -0.125,-0.0312 0.25074668,0.25074668 0 0 1 -0.0312,-0.0312 0.25074668,0.25074668 0 0 1 -0.0937,-0.125 0.25074668,0.25074668 0 0 1 0,-0.0312 0.25074668,0.25074668 0 0 1 0,-0.0625 0.25074668,0.25074668 0 0 1 0.0312,-0.0937 0.25074668,0.25074668 0 0 1 0.0312,-0.0625 l 0.34375,-0.34375 -2.9375,0 a 0.25074668,0.25074668 0 0 1 -0.0312,0 0.25074668,0.25074668 0 0 1 -0.0937,-0.0312 0.25074668,0.25074668 0 0 1 -0.0312,-0.0312 0.25074668,0.25074668 0 0 1 -0.0937,-0.125 0.25074668,0.25074668 0 0 1 0,-0.0625 l 0,-1 a 0.25074668,0.25074668 0 0 1 0,-0.0312 0.25074668,0.25074668 0 0 1 0.0312,-0.0937 0.25074668,0.25074668 0 0 1 0.0312,-0.0312 0.25074668,0.25074668 0 0 1 0.125,-0.0937 0.25074668,0.25074668 0 0 1 0.0625,0 l 2.90625,0 -0.3125,-0.3125 c 0.06,0.0659 -0.0832,-0.16368 -0.0625,-0.25 -0.0866,0.16303 0.0642,-0.1811 0.1875,-0.1875 z m 1.78125,9.125 a 0.25074668,0.25074668 0 0 1 0.0312,0 0.25074668,0.25074668 0 0 1 0.0625,0 0.25074668,0.25074668 0 0 1 0.0625,0 l 0.46875,0.15625 a 0.25074668,0.25074668 0 0 1 0.0312,0.0312 l 0.0625,0.0312 3.25,0.9375 0.0625,0 a 0.25074668,0.25074668 0 0 1 0.0625,0 l 0.4375,0.0937 a 0.25074668,0.25074668 0 0 1 0.0625,0.0312 0.25074668,0.25074668 0 0 1 0.0312,0.0312 0.25074668,0.25074668 0 0 1 0.0937,0.125 0.25074668,0.25074668 0 0 1 0,0.0625 0.25074668,0.25074668 0 0 1 0,0.0625 0.25074668,0.25074668 0 0 1 -0.0312,0.0625 0.25074668,0.25074668 0 0 1 -0.0937,0.0937 0.25074668,0.25074668 0 0 1 -0.0625,0.0312 l -0.4375,0.125 a 0.25074668,0.25074668 0 0 1 -0.0625,0 l -0.0625,0 -3.25,0.9375 -0.0625,0.0312 a 0.25074668,0.25074668 0 0 1 -0.0312,0.0312 l -0.46875,0.15625 a 0.25074668,0.25074668 0 0 1 -0.0312,0 0.25074668,0.25074668 0 0 1 -0.0625,0 0.25074668,0.25074668 0 0 1 -0.125,-0.0312 0.25074668,0.25074668 0 0 1 -0.0312,-0.0312 0.25074668,0.25074668 0 0 1 -0.0937,-0.125 0.25074668,0.25074668 0 0 1 0,-0.0312 0.25074668,0.25074668 0 0 1 0,-0.0625 0.25074668,0.25074668 0 0 1 0.0312,-0.0937 0.25074668,0.25074668 0 0 1 0.0312,-0.0625 l 0.34375,-0.34375 -2.9375,0 a 0.25074668,0.25074668 0 0 1 -0.0312,0 0.25074668,0.25074668 0 0 1 -0.0937,-0.0312 0.25074668,0.25074668 0 0 1 -0.0312,-0.0312 0.25074668,0.25074668 0 0 1 -0.0937,-0.125 0.25074668,0.25074668 0 0 1 0,-0.0625 l 0,-1 a 0.25074668,0.25074668 0 0 1 0,-0.0312 0.25074668,0.25074668 0 0 1 0.0312,-0.0937 0.25074668,0.25074668 0 0 1 0.0312,-0.0312 0.25074668,0.25074668 0 0 1 0.125,-0.0937 0.25074668,0.25074668 0 0 1 0.0625,0 l 2.90625,0 -0.3125,-0.3125 c 0.06,0.0659 -0.0832,-0.16368 -0.0625,-0.25 -0.0866,0.16303 0.0642,-0.1811 0.1875,-0.1875 z"
         id="path4236" />
      <path
         style="fill:none;stroke:#000000;stroke-width:1.38504159;stroke-miterlimit:4;stroke-opacity:1;stroke-dasharray:none"
         d="m 517.15381,119.67855 22.27701,0 0.38542,-0.6552 1.23689,-1.47973 -1.23689,-2.60566 -1.63802,-0.19271 -3.31457,-1.04061 -0.23125,-0.90573 2.44739,-2.48592 2.6401,-1.83072 -0.19271,-1.54166 -3.00624,-1.15624 -2.94843,-1.83071 0,-0.925 2.98697,-1.79217 3.00624,-1.11771 0.21198,-1.56093 -2.62083,-1.84998 -2.42812,-2.5052 0.25053,-0.90571 3.33384,-1.00209 1.50312,-0.15416 1.44304,-2.22087 -1.44304,-2.19212 -0.11563,-0.21198 -22.5468,0 0,32.16281 z"
         id="path4236-7"
         sodipodi:nodetypes="ccccccccccccccccccccccccccc" />
      <path
         sodipodi:type="arc"
         style="fill:none;stroke:#000000;stroke-width:2.24602342;stroke-linecap:square;stroke-linejoin:round;stroke-miterlimit:4;stroke-opacity:1;stroke-dasharray:none;stroke-dashoffset:0"
         id="path4238"
         sodipodi:cx="312.73419"
         sodipodi:cy="142.05278"
         sodipodi:rx="3.5457389"
         sodipodi:ry="3.5457389"
         d="m 316.27993,142.05278 c 0,1.95826 -1.58748,3.54574 -3.54574,3.54574 -1.95826,0 -3.54574,-1.58748 -3.54574,-3.54574 0,-1.95826 1.58748,-3.54574 3.54574,-3.54574 1.95826,0 3.54574,1.58748 3.54574,3.54574 z"
         transform="matrix(0.61666488,0,0,0.61666281,386.10717,16.084976)" />
      <path
         style="fill:none;stroke:#000000;stroke-width:1.10664821;stroke-linecap:butt;stroke-linejoin:miter;stroke-miterlimit:4;stroke-opacity:1;stroke-dasharray:2.2132964, 1.1066482;stroke-dashoffset:0"
         d="m 579.06732,103.2973 0,-82.570978"
         id="path4986" />
      <path
         inkscape:transform-center-y="-41.079403"
         inkscape:transform-center-x="-7.66204"
         id="path4988"
         d="M 579.17433,103.20947 595.28314,22.225073"
         style="fill:none;stroke:#000000;stroke-width:1.10664821;stroke-linecap:butt;stroke-linejoin:miter;stroke-miterlimit:4;stroke-opacity:1;stroke-dasharray:none;stroke-dashoffset:0" />
      <path
         sodipodi:nodetypes="csc"
         id="path5213"
         d="m 578.95936,28.409716 c 0.0316,0 0.0632,1.9e-5 0.0948,5.8e-5 5.02878,0.0062 9.94204,0.505511 14.694,1.452185"
         style="fill:none;stroke:#000000;stroke-width:1.38504159;stroke-linecap:square;stroke-linejoin:round;stroke-miterlimit:4;stroke-opacity:1;stroke-dashoffset:0;marker-end:url(#Arrow1Send)" />
    </g>
    <text
       xml:space="preserve"
       style="font-size:13px;font-style:normal;font-variant:normal;font-weight:normal;font-stretch:normal;text-align:end;line-height:125%;text-anchor:end;fill:#000000;fill-opacity:1;stroke:none;font-family:LMRoman12;-inkscape-font-specification:LMRoman12"
       x="633.68579"
       y="31.720062"
       id="text5639"
       sodipodi:linespacing="125%"><tspan
         sodipodi:role="line"
         x="633.68579"
         y="31.720062"
         style="font-size:13px;font-style:normal;font-variant:normal;font-weight:normal;font-stretch:normal;text-align:end;line-height:125%;writing-mode:lr-tb;text-anchor:end;font-family:LMRoman12;-inkscape-font-specification:LMRoman12"
         id="tspan5641">11.25°</tspan></text>
    <text
       sodipodi:linespacing="125%"
       id="text5846"
       y="184.21075"
       x="303.065"
       style="font-size:13px;font-style:normal;font-variant:normal;font-weight:normal;font-stretch:normal;text-align:center;line-height:125%;text-anchor:middle;fill:#000000;fill-opacity:1;stroke:none;font-family:LMRoman12;-inkscape-font-specification:LMRoman12"
       xml:space="preserve"><tspan
         id="tspan5848"
         style="font-size:15px;font-style:normal;font-variant:normal;font-weight:normal;font-stretch:normal;text-align:center;line-height:125%;writing-mode:lr-tb;text-anchor:middle;font-family:LMRoman12;-inkscape-font-specification:LMRoman12"
         y="184.21075"
         x="303.065"
         sodipodi:role="line">2</tspan></text>
    <text
       xml:space="preserve"
       style="font-size:13px;font-style:normal;font-variant:normal;font-weight:normal;font-stretch:normal;text-align:center;line-height:125%;text-anchor:middle;fill:#000000;fill-opacity:1;stroke:none;font-family:LMRoman12;-inkscape-font-specification:LMRoman12"
       x="441.20276"
       y="184.21075"
       id="text5850"
       sodipodi:linespacing="125%"><tspan
         sodipodi:role="line"
         x="441.20276"
         y="184.21075"
         style="font-size:15px;font-style:normal;font-variant:normal;font-weight:normal;font-stretch:normal;text-align:center;line-height:125%;writing-mode:lr-tb;text-anchor:middle;font-family:LMRoman12;-inkscape-font-specification:LMRoman12"
         id="tspan5852">3</tspan></text>
    <text
       sodipodi:linespacing="125%"
       id="text5854"
       y="184.21075"
       x="579.51501"
       style="font-size:13px;font-style:normal;font-variant:normal;font-weight:normal;font-stretch:normal;text-align:center;line-height:125%;text-anchor:middle;fill:#000000;fill-opacity:1;stroke:none;font-family:LMRoman12;-inkscape-font-specification:LMRoman12"
       xml:space="preserve"><tspan
         id="tspan5856"
         style="font-size:15px;font-style:normal;font-variant:normal;font-weight:normal;font-stretch:normal;text-align:center;line-height:125%;writing-mode:lr-tb;text-anchor:middle;font-family:LMRoman12;-inkscape-font-specification:LMRoman12"
         y="184.21075"
         x="579.51501"
         sodipodi:role="line">4</tspan></text>
  </g>
</svg>
