<?xml version="1.0" encoding="UTF-8" standalone="no"?>
<!-- Created with Inkscape (http://www.inkscape.org/) -->

<svg
   xmlns:dc="http://purl.org/dc/elements/1.1/"
   xmlns:cc="http://creativecommons.org/ns#"
   xmlns:rdf="http://www.w3.org/1999/02/22-rdf-syntax-ns#"
   xmlns:svg="http://www.w3.org/2000/svg"
   xmlns="http://www.w3.org/2000/svg"
   xmlns:sodipodi="http://sodipodi.sourceforge.net/DTD/sodipodi-0.dtd"
   xmlns:inkscape="http://www.inkscape.org/namespaces/inkscape"
   sodipodi:docname="systemDiagramTop.svg"
   inkscape:version="0.47 r22583"
   version="1.1"
   id="svg2"
   height="1052.3622"
   width="744.09448">
  <sodipodi:namedview
     id="base"
     pagecolor="#ffffff"
     bordercolor="#666666"
     borderopacity="1.0"
     inkscape:pageopacity="0.0"
     inkscape:pageshadow="2"
     inkscape:zoom="1.0576075"
     inkscape:cx="490.85268"
     inkscape:cy="876.08563"
     inkscape:document-units="mm"
     inkscape:current-layer="layer1"
     showgrid="false"
     showguides="true"
     inkscape:guide-bbox="true"
     units="mm"
     inkscape:showpageshadow="false"
     inkscape:window-width="1672"
     inkscape:window-height="1023"
     inkscape:window-x="0"
     inkscape:window-y="0"
     inkscape:window-maximized="0">
    <sodipodi:guide
       id="guide2816"
       position="88.582677,0"
       orientation="1,0" />
    <sodipodi:guide
       id="guide2818"
       position="655.51181,0"
       orientation="1,0" />
  </sodipodi:namedview>
  <defs
     id="defs4">
    <marker
       style="overflow:visible;"
       id="Arrow1Mend"
       refX="0.0"
       refY="0.0"
       orient="auto"
       inkscape:stockid="Arrow1Mend">
      <path
         transform="scale(0.4) rotate(180) translate(10,0)"
         style="fill-rule:evenodd;stroke:#000000;stroke-width:1.0pt;marker-start:none;"
         d="M 0.0,0.0 L 5.0,-5.0 L -12.5,0.0 L 5.0,5.0 L 0.0,0.0 z "
         id="path4322" />
    </marker>
    <marker
       style="overflow:visible"
       id="Arrow1Mstart"
       refX="0.0"
       refY="0.0"
       orient="auto"
       inkscape:stockid="Arrow1Mstart">
      <path
         transform="scale(0.4) translate(10,0)"
         style="fill-rule:evenodd;stroke:#000000;stroke-width:1.0pt;marker-start:none"
         d="M 0.0,0.0 L 5.0,-5.0 L -12.5,0.0 L 5.0,5.0 L 0.0,0.0 z "
         id="path4319" />
    </marker>
    <marker
       style="overflow:visible;"
       id="Arrow1Lend"
       refX="0.0"
       refY="0.0"
       orient="auto"
       inkscape:stockid="Arrow1Lend">
      <path
         transform="scale(0.8) rotate(180) translate(12.5,0)"
         style="fill-rule:evenodd;stroke:#000000;stroke-width:1.0pt;marker-start:none;"
         d="M 0.0,0.0 L 5.0,-5.0 L -12.5,0.0 L 5.0,5.0 L 0.0,0.0 z "
         id="path4316" />
    </marker>
    <inkscape:perspective
       id="perspective10"
       inkscape:persp3d-origin="372.04724 : 350.78739 : 1"
       inkscape:vp_z="744.09448 : 526.18109 : 1"
       inkscape:vp_y="0 : 1000 : 0"
       inkscape:vp_x="0 : 526.18109 : 1"
       sodipodi:type="inkscape:persp3d" />
    <inkscape:perspective
       id="perspective6719"
       inkscape:persp3d-origin="0.5 : 0.33333333 : 1"
       inkscape:vp_z="1 : 0.5 : 1"
       inkscape:vp_y="0 : 1000 : 0"
       inkscape:vp_x="0 : 0.5 : 1"
       sodipodi:type="inkscape:persp3d" />
  </defs>
  <metadata
     id="metadata7">
    <rdf:RDF>
      <cc:Work
         rdf:about="">
        <dc:format>image/svg+xml</dc:format>
        <dc:type
           rdf:resource="http://purl.org/dc/dcmitype/StillImage" />
        <dc:title />
      </cc:Work>
    </rdf:RDF>
  </metadata>
  <g
     transform="translate(0,-2.5390623e-6)"
     id="layer1"
     inkscape:groupmode="layer"
     inkscape:label="Layer 1">
    <rect
       y="55.0047"
       x="88.582916"
       height="64.708321"
       width="89.473923"
       id="rect2820"
       style="font-size:13px;fill:#ffffff;fill-opacity:1;stroke:#000000;stroke-width:1.25;stroke-linecap:round;stroke-linejoin:round;stroke-miterlimit:4;stroke-opacity:1;stroke-dasharray:none;stroke-dashoffset:0;font-family:LMRoman12;-inkscape-font-specification:LMRoman12" />
    <text
       sodipodi:linespacing="125%"
       id="text2822"
       y="75.847359"
       x="133.4124"
       style="font-size:13px;font-style:normal;font-variant:normal;font-weight:normal;font-stretch:normal;line-height:125%;fill:#000000;fill-opacity:1;stroke:none;font-family:LMRoman12;-inkscape-font-specification:LMRoman12"
       xml:space="preserve"><tspan
         style="font-size:13px;font-style:normal;font-variant:normal;font-weight:normal;font-stretch:normal;text-align:center;line-height:125%;writing-mode:lr-tb;text-anchor:middle;font-family:LMRoman12;-inkscape-font-specification:LMRoman12"
         y="75.847359"
         x="133.4124"
         id="tspan2824"
         sodipodi:role="line">3D Modeling/</tspan><tspan
         style="font-size:13px;font-style:normal;font-variant:normal;font-weight:normal;font-stretch:normal;text-align:center;line-height:125%;writing-mode:lr-tb;text-anchor:middle;font-family:LMRoman12;-inkscape-font-specification:LMRoman12"
         id="tspan2826"
         y="92.097359"
         x="133.4124"
         sodipodi:role="line">G-Code</tspan><tspan
         id="tspan3844"
         style="font-size:13px;font-style:normal;font-variant:normal;font-weight:normal;font-stretch:normal;text-align:center;line-height:125%;writing-mode:lr-tb;text-anchor:middle;font-family:LMRoman12;-inkscape-font-specification:LMRoman12"
         y="108.34736"
         x="133.4124"
         sodipodi:role="line">Generation</tspan></text>
    <rect
       style="font-size:13px;fill:#ffffff;fill-opacity:1;stroke:#000000;stroke-width:1.25;stroke-linecap:round;stroke-linejoin:round;stroke-miterlimit:4;stroke-opacity:1;stroke-dasharray:none;stroke-dashoffset:0;font-family:LMRoman12;-inkscape-font-specification:LMRoman12"
       id="rect3657"
       width="89.472832"
       height="47.688557"
       x="88.58268"
       y="133.48372" />
    <text
       xml:space="preserve"
       style="font-size:13px;font-style:normal;font-variant:normal;font-weight:normal;font-stretch:normal;line-height:125%;fill:#000000;fill-opacity:1;stroke:none;font-family:LMRoman12;-inkscape-font-specification:LMRoman12"
       x="133.13213"
       y="152.4465"
       id="text3659"
       sodipodi:linespacing="125%"><tspan
         sodipodi:role="line"
         x="133.13213"
         y="152.4465"
         id="tspan3665"
         style="font-size:13px;font-style:normal;font-variant:normal;font-weight:normal;font-stretch:normal;text-align:center;line-height:125%;writing-mode:lr-tb;text-anchor:middle;font-family:LMRoman12;-inkscape-font-specification:LMRoman12">Status</tspan><tspan
         id="tspan3855"
         sodipodi:role="line"
         x="133.13213"
         y="168.6965"
         style="font-size:13px;font-style:normal;font-variant:normal;font-weight:normal;font-stretch:normal;text-align:center;line-height:125%;writing-mode:lr-tb;text-anchor:middle;font-family:LMRoman12;-inkscape-font-specification:LMRoman12">Monitoring</tspan></text>
    <g
       id="g5722"
       transform="translate(56.31812,-1.2675385)"
       style="font-size:13">
      <path
         sodipodi:nodetypes="cc"
         style="fill:none;stroke:#000000;stroke-width:1px;stroke-linecap:butt;stroke-linejoin:miter;stroke-opacity:1;marker-end:url(#Arrow1Mend);font-size:13"
         d="m 445.05711,125.328 -17.97833,0"
         id="path5724" />
      <path
         sodipodi:nodetypes="cc"
         style="fill:none;stroke:#000000;stroke-width:1px;stroke-linecap:butt;stroke-linejoin:miter;stroke-opacity:1;marker-end:url(#Arrow1Mend);font-size:13"
         d="m 425.38326,113.35886 17.97833,0"
         id="path5726" />
    </g>
    <path
       sodipodi:nodetypes="cc"
       style="font-size:13px;fill:none;stroke:#000000;stroke-width:1px;stroke-linecap:butt;stroke-linejoin:miter;stroke-opacity:1;marker-end:url(#Arrow1Mend)"
       d="m 198.20964,157.328 -17.97833,0"
       id="path5730" />
    <path
       sodipodi:nodetypes="cc"
       style="font-size:13px;fill:none;stroke:#000000;stroke-width:1px;stroke-linecap:butt;stroke-linejoin:miter;stroke-opacity:1;marker-end:url(#Arrow1Mend)"
       d="m 178.53579,87.35886 17.97833,0"
       id="path5732" />
    <rect
       style="font-size:13px;fill:#ffffff;fill-opacity:1;stroke:#000000;stroke-width:1.24999988;stroke-linecap:round;stroke-linejoin:round;stroke-miterlimit:4;stroke-opacity:1;stroke-dasharray:none;stroke-dashoffset:0;font-family:LMRoman12;-inkscape-font-specification:LMRoman12"
       id="rect3963"
       width="66.49955"
       height="126.16653"
       x="589.01227"
       y="54.979549" />
    <text
       sodipodi:linespacing="125%"
       id="text3969"
       y="114.31231"
       x="622.18109"
       style="font-size:13px;font-style:normal;font-variant:normal;font-weight:normal;font-stretch:normal;line-height:125%;fill:#000000;fill-opacity:1;stroke:none;font-family:LMRoman12;-inkscape-font-specification:LMRoman12"
       xml:space="preserve"><tspan
         style="font-size:13px;font-style:normal;font-variant:normal;font-weight:normal;font-stretch:normal;text-align:center;line-height:125%;writing-mode:lr-tb;text-anchor:middle;font-family:LMRoman12;-inkscape-font-specification:LMRoman12"
         y="114.31231"
         x="622.18109"
         sodipodi:role="line"
         id="tspan4013">Printer</tspan><tspan
         id="tspan4712"
         style="font-size:13px;font-style:normal;font-variant:normal;font-weight:normal;font-stretch:normal;text-align:center;line-height:125%;writing-mode:lr-tb;text-anchor:middle;font-family:LMRoman12;-inkscape-font-specification:LMRoman12"
         y="130.56232"
         x="622.18109"
         sodipodi:role="line">Hardware</tspan></text>
    <rect
       y="54.657845"
       x="501.71158"
       height="126.16653"
       width="67.490891"
       id="rect3991"
       style="font-size:13px;fill:#ffffff;fill-opacity:1;stroke:#000000;stroke-width:1.25;stroke-linecap:round;stroke-linejoin:round;stroke-miterlimit:4;stroke-opacity:1;stroke-dasharray:none;stroke-dashoffset:0;font-family:LMRoman12;-inkscape-font-specification:LMRoman12" />
    <text
       xml:space="preserve"
       style="font-size:13px;font-style:normal;font-variant:normal;font-weight:normal;font-stretch:normal;line-height:125%;fill:#000000;fill-opacity:1;stroke:none;font-family:LMRoman12;-inkscape-font-specification:LMRoman12"
       x="535.4162"
       y="114.12711"
       id="text3993"
       sodipodi:linespacing="125%"><tspan
         sodipodi:role="line"
         x="535.4162"
         y="114.12711"
         style="font-size:13px;font-style:normal;font-variant:normal;font-weight:normal;font-stretch:normal;text-align:center;line-height:125%;writing-mode:lr-tb;text-anchor:middle;font-family:LMRoman12;-inkscape-font-specification:LMRoman12"
         id="tspan3997">Control</tspan><tspan
         sodipodi:role="line"
         x="535.4162"
         y="130.37711"
         style="font-size:13px;font-style:normal;font-variant:normal;font-weight:normal;font-stretch:normal;text-align:center;line-height:125%;writing-mode:lr-tb;text-anchor:middle;font-family:LMRoman12;-inkscape-font-specification:LMRoman12"
         id="tspan4009">Electronics</tspan></text>
    <g
       transform="translate(144.28402,-1.2675385)"
       id="g5736"
       style="font-size:13px">
      <path
         id="path5738"
         d="m 445.05711,125.328 -17.97833,0"
         style="font-size:13px;fill:none;stroke:#000000;stroke-width:1px;stroke-linecap:butt;stroke-linejoin:miter;stroke-opacity:1;marker-end:url(#Arrow1Mend)"
         sodipodi:nodetypes="cc" />
      <path
         id="path5740"
         d="m 425.38326,113.35886 17.97833,0"
         style="font-size:13px;fill:none;stroke:#000000;stroke-width:1px;stroke-linecap:butt;stroke-linejoin:miter;stroke-opacity:1;marker-end:url(#Arrow1Mend)"
         sodipodi:nodetypes="cc" />
    </g>
    <path
       id="path6553"
       d="m 95.893598,206.95824 -0.20197,0 -0.2126,-0.0106 -0.2126,-0.0213 -0.22322,-0.0319 -0.22323,-0.0425 -0.22323,-0.0532 -0.23386,-0.0638 -0.23386,-0.0744 -0.23385,-0.0957 -0.23386,-0.0957 -0.23386,-0.11693 -0.23386,-0.12756 -0.22323,-0.14882 -0.23386,-0.15945 -0.22322,-0.17008 -0.22323,-0.19134 -0.2126,-0.21259 -0.20197,-0.22323 -0.20197,-0.24449 -0.20197,-0.26575 -0.18071,-0.27638 -0.1807,-0.30826 -0.17008,-0.3189 -0.14882,-0.34016 -0.14882,-0.36142 -0.13819,-0.38267 -0.11693,-0.41457 -0.1063,-0.4252 -0.0425,-0.22323 -0.0531,-0.23385 -0.0319,-0.23386 -0.0425,-0.24449 -0.0319,-0.24449 -0.0213,-0.25512 -0.0319,-0.26575 -0.0213,-0.26574 c -0.0425,-0.26575 -0.25511,-0.47835 -0.57401,-0.47835 -0.58465,0 -0.58465,0.4252 -0.58465,1.00984 0,5.2937 2.7,10.10906 6.62244,10.16221 l 30.064962,0 c 2.07284,0 3.763,0 5.51693,2.11535 1.53071,1.86024 1.63701,3.86929 1.69016,5.02795 0.0532,0.26575 0.26575,0.47835 0.58465,0.47835 0.52086,0 0.52086,-0.3189 0.57401,-0.83976 0.2126,-3.49725 2.12599,-6.0378 4.71969,-6.62244 0.57401,-0.15945 0.69094,-0.15945 2.5937,-0.15945 l 28.4811,0 c 2.23228,0 3.92244,0 5.9315,-2.54055 1.59448,-2.06221 2.1685,-5.55945 2.1685,-7.62166 0,-0.58464 0,-1.00984 -0.57402,-1.00984 -0.53149,0 -0.53149,0.3189 -0.58464,0.85039 -0.2126,3.32717 -1.91339,5.9315 -4.61339,6.61181 -0.47834,0.15945 -0.57401,0.15945 -2.4874,0.15945 l -29.1189,0 c -2.43425,0 -3.33779,0.4252 -5.02795,2.11536 -1.10551,1.11614 -1.63701,2.65748 -2.0622,4.13504 -1.22245,-4.33701 -3.6567,-6.2504 -6.72874,-6.2504 l -30.702742,1.3e-4 z"
       style="font-style:normal;font-variant:normal;font-weight:normal;font-stretch:normal;letter-spacing:normal;word-spacing:normal;text-anchor:start;fill:#000000;stroke:#000000;stroke-width:0;stroke-linecap:butt;stroke-linejoin:miter;stroke-miterlimit:10.43299961;stroke-opacity:1;stroke-dasharray:none;stroke-dashoffset:0"
       sodipodi:nodetypes="cccccccccccccccccccccccccccccccccccccssccccscccccsscccccccc" />
    <path
       sodipodi:nodetypes="cccccccccccccccccccccccccccccccccccccssccccscccccsscccccccc"
       style="font-style:normal;font-variant:normal;font-weight:normal;font-stretch:normal;letter-spacing:normal;word-spacing:normal;text-anchor:start;fill:#000000;stroke:#000000;stroke-width:0;stroke-linecap:butt;stroke-linejoin:miter;stroke-miterlimit:10.43299961;stroke-opacity:1;stroke-dasharray:none;stroke-dashoffset:0"
       d="m 204.34516,206.95824 -0.20197,0 -0.2126,-0.0106 -0.2126,-0.0213 -0.22322,-0.0319 -0.22323,-0.0425 -0.22323,-0.0532 -0.23386,-0.0638 -0.23386,-0.0744 -0.23385,-0.0957 -0.23386,-0.0957 -0.23386,-0.11693 -0.23386,-0.12756 -0.22323,-0.14882 -0.23386,-0.15945 -0.22322,-0.17008 -0.22323,-0.19134 -0.2126,-0.21259 -0.20197,-0.22323 -0.20197,-0.24449 -0.20197,-0.26575 -0.18071,-0.27638 -0.1807,-0.30826 -0.17008,-0.3189 -0.14882,-0.34016 -0.14882,-0.36142 -0.13819,-0.38267 -0.11693,-0.41457 -0.1063,-0.4252 -0.0425,-0.22323 -0.0531,-0.23385 -0.0319,-0.23386 -0.0425,-0.24449 -0.0319,-0.24449 -0.0213,-0.25512 -0.0319,-0.26575 -0.0213,-0.26574 c -0.0425,-0.26575 -0.25511,-0.47835 -0.57401,-0.47835 -0.58465,0 -0.58465,0.4252 -0.58465,1.00984 0,5.2937 2.7,10.10906 6.62244,10.16221 l 128.06497,0 c 2.07284,0 3.763,0 5.51693,2.11535 1.53071,1.86024 1.63701,3.86929 1.69016,5.02795 0.0532,0.26575 0.26575,0.47835 0.58465,0.47835 0.52086,0 0.52086,-0.3189 0.57401,-0.83976 0.2126,-3.49725 2.12599,-6.0378 4.71969,-6.62244 0.57401,-0.15945 0.69094,-0.15945 2.5937,-0.15945 l 126.4811,0 c 2.23228,0 3.92244,0 5.9315,-2.54055 1.59448,-2.06221 2.1685,-5.55945 2.1685,-7.62166 0,-0.58464 0,-1.00984 -0.57402,-1.00984 -0.53149,0 -0.53149,0.3189 -0.58464,0.85039 -0.2126,3.32717 -1.91339,5.9315 -4.61339,6.61181 -0.47834,0.15945 -0.57401,0.15945 -2.4874,0.15945 l -127.1189,0 c -2.43425,0 -3.33779,0.4252 -5.02795,2.11536 -1.10551,1.11614 -1.63701,2.65748 -2.0622,4.13504 -1.22245,-4.33701 -3.6567,-6.2504 -6.72874,-6.2504 l -128.70275,1.3e-4 z"
       id="path6667" />
    <path
       sodipodi:nodetypes="cccccccccccccccccccccccccccccccccccccssccccscccccsscccccccc"
       style="font-style:normal;font-variant:normal;font-weight:normal;font-stretch:normal;letter-spacing:normal;word-spacing:normal;text-anchor:start;fill:#000000;stroke:#000000;stroke-width:0;stroke-linecap:butt;stroke-linejoin:miter;stroke-miterlimit:10.43299961;stroke-opacity:1;stroke-dasharray:none;stroke-dashoffset:0"
       d="m 507.18554,206.95824 -0.20197,0 -0.2126,-0.0106 -0.2126,-0.0213 -0.22322,-0.0319 -0.22323,-0.0425 -0.22323,-0.0532 -0.23386,-0.0638 -0.23386,-0.0744 -0.23385,-0.0957 -0.23386,-0.0957 -0.23386,-0.11693 -0.23386,-0.12756 -0.22323,-0.14882 -0.23386,-0.15945 -0.22322,-0.17008 -0.22323,-0.19134 -0.2126,-0.21259 -0.20197,-0.22323 -0.20197,-0.24449 -0.20197,-0.26575 -0.18071,-0.27638 -0.1807,-0.30826 -0.17008,-0.3189 -0.14882,-0.34016 -0.14882,-0.36142 -0.13819,-0.38267 -0.11693,-0.41457 -0.1063,-0.4252 -0.0425,-0.22323 -0.0531,-0.23385 -0.0319,-0.23386 -0.0425,-0.24449 -0.0319,-0.24449 -0.0213,-0.25512 -0.0319,-0.26575 -0.0213,-0.26574 c -0.0425,-0.26575 -0.25511,-0.47835 -0.57401,-0.47835 -0.58465,0 -0.58465,0.4252 -0.58465,1.00984 0,5.2937 2.7,10.10906 6.62244,10.16221 l 64.06496,0 c 2.07284,0 3.763,0 5.51693,2.11535 1.53071,1.86024 1.63701,3.86929 1.69016,5.02795 0.0532,0.26575 0.26575,0.47835 0.58465,0.47835 0.52086,0 0.52086,-0.3189 0.57401,-0.83976 0.2126,-3.49725 2.12599,-6.0378 4.71969,-6.62244 0.57401,-0.15945 0.69094,-0.15945 2.5937,-0.15945 l 62.4811,0 c 2.23228,0 3.92244,0 5.9315,-2.54055 1.59448,-2.06221 2.1685,-5.55945 2.1685,-7.62166 0,-0.58464 0,-1.00984 -0.57402,-1.00984 -0.53149,0 -0.53149,0.3189 -0.58464,0.85039 -0.2126,3.32717 -1.91339,5.9315 -4.61339,6.61181 -0.47834,0.15945 -0.57401,0.15945 -2.4874,0.15945 l -63.1189,0 c -2.43425,0 -3.33779,0.4252 -5.02795,2.11536 -1.10551,1.11614 -1.63701,2.65748 -2.0622,4.13504 -1.22245,-4.33701 -3.6567,-6.2504 -6.72874,-6.2504 l -64.70274,1.3e-4 z"
       id="path6709" />
    <text
       sodipodi:linespacing="125%"
       id="text3683-3"
       y="235.61415"
       x="133.10928"
       style="font-size:13px;font-style:normal;font-variant:normal;font-weight:normal;font-stretch:normal;line-height:125%;fill:#000000;fill-opacity:1;stroke:none;font-family:LMRoman12;-inkscape-font-specification:LMRoman12"
       xml:space="preserve"><tspan
         id="tspan4237-8"
         style="font-size:15px;font-style:normal;font-variant:normal;font-weight:bold;font-stretch:normal;text-align:center;line-height:125%;writing-mode:lr-tb;text-anchor:middle;font-family:LMRoman12;-inkscape-font-specification:LMRoman12"
         y="235.61415"
         x="133.10928"
         sodipodi:role="line">Computer</tspan></text>
    <text
       xml:space="preserve"
       style="font-size:13px;font-style:normal;font-variant:normal;font-weight:normal;font-stretch:normal;line-height:125%;fill:#000000;fill-opacity:1;stroke:none;font-family:LMRoman12;-inkscape-font-specification:LMRoman12"
       x="339.70886"
       y="235.61415"
       id="text6741"
       sodipodi:linespacing="125%"><tspan
         sodipodi:role="line"
         x="339.70886"
         y="235.61415"
         style="font-size:15px;font-style:normal;font-variant:normal;font-weight:bold;font-stretch:normal;text-align:center;line-height:125%;writing-mode:lr-tb;text-anchor:middle;font-family:LMRoman12;-inkscape-font-specification:LMRoman12"
         id="tspan6743">Mbed Firmware</tspan></text>
    <text
       sodipodi:linespacing="125%"
       id="text6745"
       y="235.61415"
       x="578.57172"
       style="font-size:13px;font-style:normal;font-variant:normal;font-weight:normal;font-stretch:normal;line-height:125%;fill:#000000;fill-opacity:1;stroke:none;font-family:LMRoman12;-inkscape-font-specification:LMRoman12"
       xml:space="preserve"><tspan
         id="tspan6747"
         style="font-size:15px;font-style:normal;font-variant:normal;font-weight:bold;font-stretch:normal;text-align:center;line-height:125%;writing-mode:lr-tb;text-anchor:middle;font-family:LMRoman12;-inkscape-font-specification:LMRoman12"
         y="235.61415"
         x="578.57172"
         sodipodi:role="line">Hardware</tspan></text>
    <rect
       y="55.0047"
       x="354.57889"
       height="126.16758"
       width="65.653389"
       id="rect3681"
       style="font-size:13px;fill:#ffffff;fill-opacity:1;stroke:#000000;stroke-width:1.25;stroke-linecap:round;stroke-linejoin:round;stroke-miterlimit:4;stroke-opacity:1;stroke-dasharray:none;stroke-dashoffset:0;font-family:LMRoman12;-inkscape-font-specification:LMRoman12" />
    <text
       sodipodi:linespacing="125%"
       id="text3683"
       y="113.67849"
       x="387.23566"
       style="font-size:13px;font-style:normal;font-variant:normal;font-weight:normal;font-stretch:normal;line-height:125%;fill:#000000;fill-opacity:1;stroke:none;font-family:LMRoman12;-inkscape-font-specification:LMRoman12"
       xml:space="preserve"><tspan
         style="font-size:13px;font-style:normal;font-variant:normal;font-weight:normal;font-stretch:normal;text-align:center;line-height:125%;writing-mode:lr-tb;text-anchor:middle;font-family:LMRoman12;-inkscape-font-specification:LMRoman12"
         id="tspan3685"
         y="113.67849"
         x="387.23566"
         sodipodi:role="line">Printer</tspan><tspan
         id="tspan4237"
         style="font-size:13px;font-style:normal;font-variant:normal;font-weight:normal;font-stretch:normal;text-align:center;line-height:125%;writing-mode:lr-tb;text-anchor:middle;font-family:LMRoman12;-inkscape-font-specification:LMRoman12"
         y="129.9285"
         x="387.23566"
         sodipodi:role="line">Controller</tspan></text>
    <rect
       style="font-size:13px;fill:none;stroke:#000000;stroke-width:0.875;stroke-linecap:round;stroke-linejoin:round;stroke-miterlimit:4;stroke-opacity:1;stroke-dasharray:none;stroke-dashoffset:0;font-family:LMRoman12;-inkscape-font-specification:LMRoman12"
       id="rect3629"
       width="71.690834"
       height="65.083664"
       x="268.9704"
       y="54.804604" />
    <text
       xml:space="preserve"
       style="font-size:13px;font-style:normal;font-variant:normal;font-weight:normal;font-stretch:normal;line-height:125%;fill:#000000;fill-opacity:1;stroke:none;font-family:LMRoman12;-inkscape-font-specification:LMRoman12"
       x="304.76291"
       y="82.536438"
       id="text3631"
       sodipodi:linespacing="125%"><tspan
         sodipodi:role="line"
         x="304.76291"
         y="82.536438"
         id="tspan3635"
         style="font-size:13px;font-style:normal;font-variant:normal;font-weight:normal;font-stretch:normal;text-align:center;line-height:125%;writing-mode:lr-tb;text-anchor:middle;font-family:LMRoman12;-inkscape-font-specification:LMRoman12">G-Code</tspan><tspan
         sodipodi:role="line"
         x="304.76291"
         y="98.786438"
         style="font-size:13px;font-style:normal;font-variant:normal;font-weight:normal;font-stretch:normal;text-align:center;line-height:125%;writing-mode:lr-tb;text-anchor:middle;font-family:LMRoman12;-inkscape-font-specification:LMRoman12"
         id="tspan3743">Interpreter</tspan></text>
    <rect
       style="font-size:13px;fill:#ffffff;fill-opacity:1;stroke:#000000;stroke-width:1.25;stroke-linecap:round;stroke-linejoin:round;stroke-miterlimit:4;stroke-opacity:1;stroke-dasharray:none;stroke-dashoffset:0;font-family:LMRoman12;-inkscape-font-specification:LMRoman12"
       id="rect3947"
       width="57.322872"
       height="126.16758"
       x="198.30539"
       y="54.992104" />
    <text
       xml:space="preserve"
       style="font-size:13px;font-style:normal;font-variant:normal;font-weight:normal;font-stretch:normal;line-height:125%;fill:#000000;fill-opacity:1;stroke:none;font-family:LMRoman12;-inkscape-font-specification:LMRoman12"
       x="225.91551"
       y="114.3969"
       id="text3949"
       sodipodi:linespacing="125%"><tspan
         sodipodi:role="line"
         x="225.91551"
         y="114.3969"
         id="tspan3951"
         style="font-size:13px;font-style:normal;font-variant:normal;font-weight:normal;font-stretch:normal;text-align:center;line-height:125%;writing-mode:lr-tb;text-anchor:middle;font-family:LMRoman12;-inkscape-font-specification:LMRoman12">Network</tspan><tspan
         sodipodi:role="line"
         x="225.91551"
         y="130.6469"
         style="font-size:13px;font-style:normal;font-variant:normal;font-weight:normal;font-stretch:normal;text-align:center;line-height:125%;writing-mode:lr-tb;text-anchor:middle;font-family:LMRoman12;-inkscape-font-specification:LMRoman12"
         id="tspan4730">Interface</tspan></text>
    <rect
       y="54.992104"
       x="434.61185"
       height="126.16758"
       width="46.625416"
       id="rect4247"
       style="font-size:13px;fill:#ffffff;fill-opacity:1;stroke:#000000;stroke-width:1.25;stroke-linecap:round;stroke-linejoin:round;stroke-miterlimit:4;stroke-opacity:1;stroke-dasharray:none;stroke-dashoffset:0;font-family:LMRoman12;-inkscape-font-specification:LMRoman12" />
    <text
       sodipodi:linespacing="125%"
       id="text4249"
       y="114.76089"
       x="457.87723"
       style="font-size:13px;font-style:normal;font-variant:normal;font-weight:normal;font-stretch:normal;line-height:125%;fill:#000000;fill-opacity:1;stroke:none;font-family:LMRoman12;-inkscape-font-specification:LMRoman12"
       xml:space="preserve"><tspan
         style="font-size:13px;font-style:normal;font-variant:normal;font-weight:normal;font-stretch:normal;text-align:center;line-height:125%;writing-mode:lr-tb;text-anchor:middle;font-family:LMRoman12;-inkscape-font-specification:LMRoman12"
         id="tspan4251"
         y="114.76089"
         x="457.87723"
         sodipodi:role="line">I/O</tspan><tspan
         style="font-size:13px;font-style:normal;font-variant:normal;font-weight:normal;font-stretch:normal;text-align:center;line-height:125%;writing-mode:lr-tb;text-anchor:middle;font-family:LMRoman12;-inkscape-font-specification:LMRoman12"
         y="131.01089"
         x="457.87723"
         sodipodi:role="line"
         id="tspan4255">Drivers</tspan></text>
    <path
       sodipodi:nodetypes="cc"
       style="font-size:13px;fill:none;stroke:#000000;stroke-width:1px;stroke-linecap:butt;stroke-linejoin:miter;stroke-opacity:1;marker-end:url(#Arrow1Mend)"
       d="m 255.54384,87.35886 11.97833,0"
       id="path5700" />
    <path
       id="path5702"
       d="m 268.27217,157.328 -11.97833,0"
       style="font-size:13px;fill:none;stroke:#000000;stroke-width:1px;stroke-linecap:butt;stroke-linejoin:miter;stroke-opacity:1;marker-end:url(#Arrow1Mend)"
       sodipodi:nodetypes="cc" />
    <g
       transform="translate(-4.668591,-1.2549424)"
       id="g5712"
       style="font-size:13px">
      <path
         id="path5706"
         d="m 439.05711,125.328 -11.97833,0"
         style="font-size:13px;fill:none;stroke:#000000;stroke-width:1px;stroke-linecap:butt;stroke-linejoin:miter;stroke-opacity:1;marker-end:url(#Arrow1Mend)"
         sodipodi:nodetypes="cc" />
      <path
         id="path5708"
         d="m 425.38326,113.35886 11.97833,0"
         style="font-size:13px;fill:none;stroke:#000000;stroke-width:1px;stroke-linecap:butt;stroke-linejoin:miter;stroke-opacity:1;marker-end:url(#Arrow1Mend)"
         sodipodi:nodetypes="cc" />
    </g>
    <path
       id="path3898"
       d="m 340.88102,87.35886 11.97833,0"
       style="font-size:13px;fill:none;stroke:#000000;stroke-width:1px;stroke-linecap:butt;stroke-linejoin:miter;stroke-opacity:1;marker-end:url(#Arrow1Mend)"
       sodipodi:nodetypes="cc" />
    <rect
       y="133.28201"
       x="268.9704"
       height="48.065159"
       width="71.690834"
       id="rect3906"
       style="font-size:13px;fill:none;stroke:#000000;stroke-width:0.875;stroke-linecap:round;stroke-linejoin:round;stroke-miterlimit:4;stroke-opacity:1;stroke-dasharray:none;stroke-dashoffset:0;font-family:LMRoman12;-inkscape-font-specification:LMRoman12" />
    <text
       sodipodi:linespacing="125%"
       id="text3908"
       y="153.70059"
       x="304.71091"
       style="font-size:13px;font-style:normal;font-variant:normal;font-weight:normal;font-stretch:normal;line-height:125%;fill:#000000;fill-opacity:1;stroke:none;font-family:LMRoman12;-inkscape-font-specification:LMRoman12"
       xml:space="preserve"><tspan
         id="tspan3912"
         style="font-size:13px;font-style:normal;font-variant:normal;font-weight:normal;font-stretch:normal;text-align:center;line-height:125%;writing-mode:lr-tb;text-anchor:middle;font-family:LMRoman12;-inkscape-font-specification:LMRoman12"
         y="153.70059"
         x="304.71091"
         sodipodi:role="line">Status</tspan><tspan
         style="font-size:13px;font-style:normal;font-variant:normal;font-weight:normal;font-stretch:normal;text-align:center;line-height:125%;writing-mode:lr-tb;text-anchor:middle;font-family:LMRoman12;-inkscape-font-specification:LMRoman12"
         y="169.95059"
         x="304.71091"
         sodipodi:role="line"
         id="tspan3918">Monitor</tspan></text>
    <path
       sodipodi:nodetypes="cc"
       style="font-size:13px;fill:none;stroke:#000000;stroke-width:1px;stroke-linecap:butt;stroke-linejoin:miter;stroke-opacity:1;marker-end:url(#Arrow1Mend)"
       d="m 353.60935,157.328 -11.97833,0"
       id="path3914" />
  </g>
</svg>
